<?xml version="1.0" standalone="no"?>
<!DOCTYPE svg PUBLIC "-//W3C//DTD SVG 20010904//EN"
 "http://www.w3.org/TR/2001/REC-SVG-20010904/DTD/svg10.dtd">
<svg version="1.0" xmlns="http://www.w3.org/2000/svg"
 width="533.000000pt" height="533.000000pt" viewBox="0 0 533.000000 533.000000"
 preserveAspectRatio="xMidYMid meet">
<metadata>
Created by potrace 1.11, written by Peter Selinger 2001-2013
</metadata>
<g transform="translate(0.000000,533.000000) scale(0.100000,-0.100000)"
fill="#000000" stroke="none">
<path d="M456 5314 c-3 -8 -18 -14 -33 -15 -24 0 -25 -1 -8 -9 17 -6 14 -9
-17 -15 -21 -4 -38 -11 -38 -16 0 -5 -7 -9 -15 -9 -9 0 -18 -6 -21 -14 -3 -8
-23 -17 -45 -21 -21 -4 -39 -11 -39 -15 0 -5 -16 -14 -34 -20 -24 -8 -33 -16
-29 -25 3 -10 -5 -18 -21 -25 -15 -5 -29 -17 -32 -25 -4 -8 -15 -15 -25 -15
-10 0 -19 -4 -19 -10 0 -5 -9 -10 -20 -10 -11 0 -20 -7 -20 -15 0 -8 -9 -19
-20 -25 -20 -11 -20 -21 -20 -561 l0 -550 62 7 c139 14 461 6 450 -10 -3 -6
13 4 37 23 23 18 70 75 103 125 59 89 143 194 183 229 20 17 20 17 0 11 l-20
-6 20 13 c11 6 22 13 24 15 2 2 -2 12 -10 21 -7 10 -9 15 -5 11 5 -4 16 -2 24
5 13 10 14 9 7 -2 -6 -11 -3 -13 13 -9 14 4 20 2 16 -4 -11 -18 89 44 139 87
27 22 58 58 69 80 12 22 32 55 46 74 29 37 39 93 16 84 -8 -3 -14 -1 -14 4 0
5 -8 9 -17 10 -10 1 -25 3 -33 5 -8 3 -31 8 -50 12 -19 5 -39 11 -45 14 -17
10 -35 11 -41 1 -3 -5 -12 -2 -20 6 -9 8 -20 13 -25 10 -5 -4 -9 0 -9 7 0 9
-3 9 -10 -2 -8 -13 -10 -12 -10 3 0 9 -6 17 -14 17 -8 0 -16 6 -18 13 -10 25
1 117 17 151 10 20 14 43 11 52 -4 11 -2 15 8 11 9 -4 16 5 20 26 4 19 2 33
-4 35 -5 2 -7 8 -4 14 3 5 14 2 25 -8 35 -31 20 -4 -23 43 -40 42 -43 50 -43
102 0 31 4 73 8 94 l8 38 -215 -1 c-176 -1 -215 -4 -220 -16z"/>
<path d="M1763 5271 c1 -52 -2 -62 -23 -80 -14 -11 -36 -21 -50 -21 -14 -1
-38 -3 -55 -5 -16 -2 -72 -7 -124 -10 -52 -3 -97 -7 -99 -10 -3 -2 -12 0 -22
5 -10 5 -21 6 -25 2 -3 -4 -11 -8 -16 -8 -5 -1 -10 -2 -11 -4 -2 -1 -16 -3
-33 -4 -16 -2 -52 -6 -80 -10 -27 -4 -66 -9 -85 -11 -98 -13 -187 -53 -164
-74 4 -3 9 0 11 7 3 6 11 12 19 12 9 0 12 5 9 10 -3 6 3 10 15 10 17 0 20 -4
15 -20 -6 -18 3 -25 28 -21 4 0 7 -4 7 -10 0 -8 12 -10 35 -6 19 3 35 3 35 -1
0 -4 28 -8 63 -8 94 0 167 -8 167 -18 0 -4 7 -6 15 -3 8 4 17 2 19 -2 3 -5 17
-7 31 -6 14 2 27 -1 31 -6 3 -5 10 -7 15 -4 12 8 34 -15 43 -43 9 -27 13 -27
51 -4 227 138 309 160 573 160 l182 -1 6 -26 c4 -14 17 -37 29 -51 12 -14 28
-42 35 -63 6 -20 16 -34 22 -31 5 3 8 -2 7 -12 -2 -11 3 -29 9 -42 7 -12 10
-28 6 -34 -4 -7 -3 -8 4 -4 7 4 12 3 12 -3 0 -5 -8 -15 -17 -20 -11 -6 -13
-11 -5 -11 7 0 10 -4 7 -10 -3 -5 -2 -10 3 -10 5 0 9 -20 8 -44 -1 -52 -16
-51 -17 2 -1 33 -2 34 -8 12 -7 -23 -8 -23 -13 -5 -3 11 -3 4 -1 -15 3 -19 10
-38 16 -42 17 -10 17 -36 0 -34 -9 0 -17 -7 -18 -16 -3 -14 0 -16 15 -8 20 11
47 4 68 -17 7 -7 22 -13 33 -13 10 0 19 -5 19 -11 0 -5 5 -7 10 -4 6 3 10 1
10 -4 0 -6 4 -10 9 -8 12 3 52 -44 46 -54 -3 -4 -1 -10 5 -14 6 -4 7 -11 4
-17 -4 -7 -2 -8 5 -4 6 4 14 1 17 -8 3 -8 14 -13 25 -11 11 2 17 1 15 -4 -3
-4 11 -15 30 -26 19 -10 34 -26 34 -36 0 -10 5 -21 10 -24 6 -4 8 -11 5 -16
-4 -5 -2 -9 4 -9 6 0 22 -12 36 -26 25 -25 25 -25 3 -18 -13 3 -25 10 -28 13
-3 4 -16 15 -30 24 -13 9 -19 17 -12 17 7 0 10 5 7 10 -3 6 -16 8 -28 5 -12
-3 -40 -2 -62 2 -32 7 -43 5 -57 -9 -11 -11 -23 -16 -27 -13 -5 2 -11 -5 -14
-16 -3 -12 -10 -18 -15 -15 -6 3 -12 0 -15 -6 -3 -10 -7 -10 -17 -1 -7 6 -19
9 -26 6 -8 -3 -14 0 -14 6 0 9 -5 9 -21 0 -13 -6 -19 -7 -15 -1 5 9 -14 9 -34
2 -3 -1 -9 -2 -14 -1 -5 1 -4 -4 3 -12 9 -12 8 -16 -5 -21 -28 -11 -37 -7 -23
11 13 15 11 16 -13 9 -32 -7 -36 1 -10 20 16 13 16 14 -3 8 -11 -4 -28 -14
-38 -22 -9 -8 -20 -12 -24 -8 -4 4 -1 11 7 16 8 6 10 10 4 10 -5 0 -19 -7 -30
-15 -28 -21 -40 -18 -19 5 10 11 13 20 7 20 -6 0 -15 -6 -19 -14 -4 -8 -17
-16 -28 -19 -18 -4 -18 -5 3 -6 15 -1 22 -7 22 -21 0 -11 7 -20 15 -20 8 0 15
-4 15 -10 0 -5 4 -10 10 -10 5 0 7 6 4 14 -4 11 24 52 31 44 9 -11 -10 -81
-24 -86 -9 -3 -19 -10 -23 -16 -4 -6 -10 3 -14 22 -4 17 -9 32 -13 32 -13 -1
-41 -28 -41 -39 0 -7 -4 -9 -10 -6 -6 4 -7 -1 -3 -11 6 -16 7 -15 20 2 7 10
13 14 13 8 0 -5 4 -3 9 5 6 9 9 6 9 -13 0 -14 -10 -33 -21 -43 -11 -10 -17
-12 -12 -4 4 8 2 17 -6 22 -20 12 -31 11 -23 -3 5 -7 3 -8 -5 -4 -7 5 -10 14
-7 22 3 7 1 16 -3 19 -5 3 -7 15 -4 28 4 21 4 20 -10 -3 -8 -16 -11 -31 -5
-42 11 -22 10 -25 -6 -25 -8 0 -12 7 -9 16 4 14 4 14 -6 1 -6 -8 -8 -24 -6
-35 3 -11 2 -14 -1 -6 -5 11 -8 11 -16 0 -6 -9 -7 -4 -3 16 3 17 2 23 -1 15
-20 -46 -27 -66 -25 -73 1 -5 -3 -6 -9 -2 -7 4 -7 11 -2 18 5 7 8 26 5 42 -3
23 -1 26 7 15 8 -13 10 -13 10 1 0 23 -11 30 -27 17 -11 -8 -12 -7 -7 5 3 9
14 19 24 22 11 3 18 15 18 31 0 15 9 32 22 42 39 29 70 64 64 73 -3 5 -1 9 5
9 9 0 6 44 -5 61 -2 4 2 10 8 12 9 4 8 6 -2 7 -10 0 -6 6 10 15 14 8 19 14 11
15 -9 0 -4 9 13 25 14 13 26 28 26 32 0 4 18 17 40 27 28 13 37 22 28 27 -8 5
4 8 27 8 22 1 48 1 57 2 20 3 32 26 18 34 -6 4 -10 12 -10 18 0 7 4 6 10 -3 5
-8 10 -13 11 -10 0 3 2 13 4 23 2 9 -1 17 -6 17 -5 0 -9 16 -9 36 0 31 -2 35
-15 24 -8 -7 -15 -18 -15 -24 0 -6 5 -4 10 4 7 11 10 8 9 -15 0 -16 -3 -24 -6
-17 -4 10 -8 10 -19 1 -10 -8 -11 -15 -4 -24 8 -9 6 -14 -5 -19 -10 -4 -15 1
-15 14 0 13 -7 20 -20 20 -10 0 -24 8 -29 18 -6 9 -11 11 -11 5 0 -7 -3 -12
-7 -11 -16 4 -53 -14 -47 -23 3 -5 9 -7 14 -4 5 3 11 1 14 -4 4 -5 -5 -8 -19
-6 -14 1 -28 -2 -31 -7 -3 -5 -12 -7 -18 -5 -7 3 -19 -4 -27 -14 -14 -19 -14
-19 -21 3 l-6 23 -1 -22 c-1 -13 -7 -23 -13 -23 -9 0 -8 -4 2 -10 13 -8 12
-10 -3 -10 -11 0 -15 -4 -11 -12 5 -8 0 -9 -15 -5 -16 4 -21 2 -18 -8 4 -9 -1
-11 -15 -7 -17 4 -19 2 -13 -18 5 -15 4 -20 -4 -16 -6 4 -11 3 -11 -3 0 -6 -8
-7 -17 -4 -16 6 -16 5 -5 -10 12 -14 9 -17 -23 -23 -19 -3 -40 -15 -45 -25 -6
-10 -17 -16 -25 -13 -19 8 -39 -41 -26 -65 8 -13 3 -19 -20 -30 -22 -9 -33
-10 -43 -2 -7 6 -15 8 -18 5 -3 -3 -9 12 -12 32 -4 20 -13 46 -19 58 -7 11
-13 22 -14 24 -4 10 -63 12 -64 3 -1 -6 -3 -15 -4 -21 -1 -5 -3 -17 -4 -26 0
-8 -5 -12 -11 -9 -5 3 -10 -1 -10 -10 0 -19 -69 -87 -81 -80 -5 4 -7 0 -4 -7
3 -7 -4 -19 -16 -26 -18 -11 -23 -11 -35 5 -9 12 -13 13 -14 5 0 -7 -5 -10
-11 -6 -8 4 -9 -1 -4 -16 5 -15 4 -20 -4 -16 -18 12 -13 -9 9 -34 16 -18 23
-21 32 -12 20 20 26 14 36 -35 8 -37 7 -49 -4 -61 -11 -10 -12 -18 -4 -27 8
-10 7 -15 -2 -19 -10 -5 -10 -7 -1 -12 9 -4 7 -13 -9 -34 -12 -17 -18 -35 -14
-46 5 -14 4 -15 -8 -5 -10 8 -16 9 -21 1 -3 -5 -11 -10 -16 -10 -6 0 -7 5 -4
10 3 6 2 10 -4 10 -6 0 -9 13 -8 29 1 16 4 29 7 29 18 -1 21 4 10 17 -11 14
-15 13 -27 -5 -9 -13 -21 -19 -30 -16 -10 4 -13 2 -10 -8 4 -10 0 -12 -14 -9
-14 4 -18 11 -13 26 5 17 4 18 -9 6 -8 -8 -12 -20 -9 -27 2 -8 -4 -16 -16 -19
-11 -3 -23 -12 -26 -20 -3 -8 -10 -11 -16 -8 -5 3 -10 1 -10 -5 0 -6 -4 -8
-10 -5 -6 4 -7 -1 -3 -11 4 -11 2 -15 -4 -11 -6 4 -15 -11 -22 -38 -7 -30 -17
-45 -27 -45 -10 0 -14 -6 -11 -14 10 -25 -26 -29 -45 -6 l-18 22 -1 -23 c0
-22 -1 -23 -9 -4 -8 19 -8 19 -16 1 -7 -18 -8 -18 -21 0 -12 17 -13 17 -14 -2
0 -18 -1 -18 -9 1 -7 17 -9 17 -9 3 -1 -17 -21 -26 -21 -10 0 19 -30 7 -31
-12 -1 -20 -2 -18 -15 23 -3 10 -7 11 -18 2 -17 -14 -29 0 -20 23 7 20 -44 65
-68 61 -10 -2 -18 1 -18 6 0 6 -5 7 -11 3 -7 -4 -9 0 -5 12 3 11 1 26 -4 34
-9 13 -12 13 -24 -2 -14 -19 -50 -25 -77 -14 -14 6 -18 -1 -20 -43 -2 -28 -1
-51 4 -51 4 0 7 -6 7 -12 0 -7 9 -24 20 -38 28 -35 25 -43 -10 -25 -36 19 -36
19 -45 -2 -14 -33 -15 -73 -3 -73 7 0 2 -7 -10 -16 -12 -8 -22 -24 -22 -35 0
-10 -4 -19 -8 -19 -4 0 -9 -11 -10 -25 -2 -23 32 -54 45 -41 3 3 15 0 27 -6
11 -7 25 -12 29 -13 4 0 12 -7 17 -15 9 -13 10 -13 10 0 0 13 1 13 11 0 8 -11
12 -12 16 -2 2 6 10 9 16 5 13 -8 19 -10 43 -12 10 -1 14 -7 11 -15 -4 -11 -1
-13 10 -9 12 5 15 2 11 -8 -4 -10 1 -15 13 -16 10 -1 19 2 19 8 0 5 5 9 10 9
23 0 8 -32 -20 -41 -16 -6 -28 -15 -25 -20 3 -4 13 -5 23 -2 14 6 15 4 5 -9
-7 -8 -11 -17 -9 -19 2 -2 6 -23 10 -47 5 -32 3 -42 -5 -36 -7 4 -10 1 -7 -7
3 -8 -1 -31 -8 -51 -7 -21 -11 -39 -9 -39 20 -6 32 -2 43 11 11 13 11 13 6 -2
-6 -18 21 -65 34 -60 4 2 9 -4 10 -14 3 -10 0 -14 -7 -10 -16 10 -14 -3 3 -19
7 -8 16 -11 20 -8 3 4 6 -3 6 -15 0 -35 17 -34 18 1 2 58 3 66 18 78 24 19 64
-81 61 -154 -1 -31 3 -59 8 -61 21 -8 -25 -39 -55 -38 -30 1 -64 28 -54 44 3
4 -5 12 -16 18 -11 6 -17 16 -14 22 4 6 3 9 -2 6 -5 -4 -20 9 -34 28 -25 34
-40 43 -40 24 0 -5 4 -10 9 -10 5 0 8 -8 7 -17 0 -11 5 -17 13 -15 8 2 11 -3
8 -12 -4 -9 -1 -13 7 -10 7 3 18 -7 24 -21 6 -14 16 -25 21 -25 6 0 8 -7 5
-15 -3 -8 5 -24 19 -37 63 -59 46 -168 -27 -168 -12 0 -46 -12 -75 -26 -51
-24 -81 -26 -81 -4 0 5 -7 10 -15 10 -8 0 -15 -7 -15 -15 0 -21 -32 -35 -74
-31 -31 3 -36 1 -31 -13 3 -11 -14 -42 -49 -87 -86 -112 -105 -163 -80 -214
12 -25 84 -97 114 -116 10 -6 10 -3 -2 7 -9 9 -14 19 -11 23 4 3 17 -4 30 -16
13 -12 23 -16 23 -10 0 6 -4 13 -9 16 -5 4 -8 17 -6 31 1 14 -2 25 -6 25 -5 0
-9 5 -9 11 0 5 5 7 11 3 8 -5 8 -1 0 14 -6 11 -11 42 -11 67 0 39 3 46 16 41
8 -3 12 -2 9 4 -11 17 19 37 60 40 106 8 207 3 216 -11 5 -8 9 -10 9 -6 0 5 7
1 16 -7 10 -10 25 -14 42 -11 15 3 45 8 67 11 22 4 58 14 80 24 22 10 74 33
115 50 41 18 89 38 105 45 17 8 69 19 117 25 49 7 86 15 84 19 -2 3 20 6 50 5
38 0 53 3 50 11 -2 6 2 12 10 12 7 0 11 -4 8 -9 -3 -4 9 -5 27 -1 24 4 34 2
41 -10 14 -27 86 -19 118 13 19 19 129 15 147 -5 4 -4 2 -5 -5 0 -10 5 -13 2
-10 -10 2 -12 14 -19 38 -21 19 -2 42 -7 50 -11 53 -22 156 -33 180 -18 20 13
85 20 264 30 66 3 124 9 129 12 5 3 36 7 70 10 34 2 73 11 86 20 12 8 32 13
42 10 16 -4 18 -1 13 21 l-5 27 20 -24 c19 -21 21 -21 21 -5 0 16 2 17 10 4 6
-10 10 -11 10 -2 0 6 12 12 27 12 19 0 24 3 16 11 -8 8 -8 19 0 40 9 22 8 32
-2 41 -12 11 -13 10 -7 -7 4 -11 4 -16 0 -13 -4 4 -16 2 -28 -4 -11 -7 -25
-11 -30 -10 -5 2 -4 -3 3 -12 8 -10 9 -16 1 -21 -18 -11 -23 25 -6 44 12 13
14 21 7 26 -6 3 -11 11 -11 16 0 6 4 8 9 5 5 -4 7 3 4 14 -3 13 2 30 14 43 10
12 31 41 45 63 15 23 52 63 82 90 31 26 56 56 56 66 0 10 7 18 15 18 8 0 15 4
15 9 0 4 11 7 24 6 20 -3 24 1 21 17 -3 11 3 34 12 52 9 17 16 44 14 60 -2 15
1 26 6 23 5 -3 10 3 10 14 1 11 -2 17 -7 14 -6 -3 -7 1 -4 9 3 9 11 13 18 9 6
-3 4 2 -5 13 -12 14 -15 32 -12 69 2 28 5 68 6 90 2 37 4 40 36 42 19 2 38 9
43 16 4 6 8 8 9 2 1 -5 4 6 8 25 4 26 16 41 47 62 40 27 99 39 122 24 7 -4 12
-2 12 3 0 6 5 11 10 11 15 0 50 38 50 55 0 8 14 22 31 31 17 8 29 12 26 7 -3
-5 3 -14 14 -21 11 -7 19 -8 19 -2 0 5 -4 10 -10 10 -5 0 -10 5 -10 10 0 18
19 10 25 -11 10 -32 -8 -42 -33 -19 -26 24 -40 26 -21 3 12 -15 12 -16 -4 -10
-11 4 -16 3 -12 -3 3 -5 -2 -22 -11 -37 -9 -17 -10 -21 -2 -11 13 15 18 15 42
3 19 -10 25 -11 21 -2 -4 7 1 3 9 -7 20 -24 20 -45 3 -52 -8 -3 -14 -11 -14
-19 0 -11 4 -12 14 -4 8 7 13 8 13 1 0 -5 -7 -15 -15 -22 -8 -7 -15 -16 -15
-21 0 -5 -10 -20 -22 -34 -15 -18 -25 -22 -33 -15 -9 8 -15 5 -19 -7 -6 -15
-8 -15 -17 -3 -8 13 -10 13 -19 0 -9 -13 -10 -13 -11 0 0 10 -3 8 -8 -5 -5
-12 -4 -23 2 -26 5 -4 7 -14 4 -22 -7 -18 15 -29 41 -21 9 3 6 -2 -8 -10 -14
-8 -20 -15 -15 -16 6 0 21 7 33 16 12 8 27 12 32 9 6 -3 10 1 10 10 0 9 4 14
9 11 5 -3 20 12 35 34 14 22 29 40 32 40 4 0 1 -6 -5 -14 -6 -7 -9 -20 -5 -29
3 -8 1 -18 -5 -22 -17 -10 -13 -21 8 -21 11 0 18 4 15 7 -2 4 1 11 7 14 5 4 8
14 5 22 -3 8 -2 12 3 9 11 -7 36 22 27 31 -3 3 -6 1 -6 -5 0 -7 -4 -12 -10
-12 -21 0 -9 18 20 30 17 7 30 16 30 21 0 17 65 4 78 -16 11 -16 12 -16 8 -2
-5 15 -2 16 14 7 11 -6 20 -7 20 -2 0 5 6 9 13 10 86 8 134 15 149 23 10 5 19
5 22 0 4 -5 1 -11 -6 -13 -9 -3 -9 -6 1 -12 8 -5 14 -1 18 13 5 18 12 22 38
21 3 0 25 11 50 24 25 14 52 23 60 20 8 -4 15 -1 15 6 0 6 -4 9 -9 6 -5 -3
-11 0 -14 8 -4 10 1 12 16 9 18 -5 20 -3 10 7 -14 15 -5 26 47 56 27 15 43 18
70 13 21 -5 36 -4 39 2 1 6 10 2 18 -8 8 -10 12 -12 8 -5 -3 6 -1 12 4 12 6 0
11 -6 11 -12 0 -10 3 -9 9 1 7 11 9 11 14 0 5 -12 6 -12 6 0 1 10 4 11 15 2 7
-6 25 -12 40 -13 17 -2 25 -7 22 -15 -3 -7 -1 -13 5 -13 6 0 8 -4 5 -9 -3 -5
4 -11 15 -14 16 -4 20 -11 16 -26 -3 -12 -1 -19 5 -15 9 6 23 -27 18 -42 -1
-4 4 -11 12 -15 10 -7 8 -13 -12 -28 -13 -11 -29 -17 -34 -14 -5 3 -6 1 -2 -6
4 -6 12 -8 18 -5 7 4 8 2 4 -4 -4 -7 -13 -12 -20 -12 -8 0 -20 -8 -27 -17 -13
-17 -12 -17 6 -4 11 8 4 -1 -15 -20 -50 -49 -88 -102 -83 -116 3 -7 -3 -13
-12 -13 -9 0 -13 -4 -10 -10 3 -5 1 -10 -5 -10 -14 0 -40 -25 -40 -39 0 -6 5
-11 10 -11 6 0 10 -10 9 -22 0 -22 -1 -22 -10 -3 -6 15 -7 10 -4 -18 4 -28 1
-39 -11 -44 -12 -4 -13 -8 -3 -13 12 -8 133 81 142 104 9 23 205 264 280 343
42 46 77 84 77 87 0 2 -7 9 -15 16 -13 11 -14 10 -9 -5 6 -15 4 -16 -15 -6
-24 13 -61 6 -61 -12 -1 -13 -21 18 -24 36 -1 7 -5 18 -9 25 -5 6 -4 12 1 12
10 0 9 50 -2 68 -4 7 -4 12 1 11 19 -3 27 2 14 10 -9 6 -10 14 -3 27 13 26 5
42 -27 59 -22 11 -31 11 -42 2 -7 -7 -5 -2 5 11 18 20 43 32 32 14 -2 -4 4 -8
15 -8 19 0 19 1 3 13 -12 9 -14 13 -4 13 7 0 11 3 7 6 -3 4 -25 -5 -49 -19
-240 -140 -314 -162 -543 -162 -91 1 -105 3 -153 30 -30 16 -63 43 -75 59 -34
47 -56 102 -47 116 5 7 6 19 3 26 -10 26 99 117 205 173 57 30 111 61 120 69
9 7 11 11 5 7 -7 -3 -13 -3 -13 0 0 4 6 13 13 20 40 46 42 49 24 42 -16 -6
-17 -2 -12 31 4 30 3 33 -4 15 -14 -31 -25 -29 -17 1 3 14 1 28 -5 31 -7 5 -5
13 5 24 9 10 14 20 11 23 -3 3 1 11 10 18 8 7 15 28 15 47 0 21 4 32 10 28 6
-4 8 -15 5 -26 -4 -11 -2 -19 4 -19 6 0 11 14 11 30 0 17 5 30 10 30 6 0 10
-6 10 -12 0 -10 3 -9 9 1 7 11 9 11 14 0 4 -11 6 -11 6 -1 1 7 4 11 9 9 4 -3
7 16 7 41 0 30 -4 47 -12 47 -21 0 -37 22 -22 30 8 6 10 4 4 -5 -6 -9 -4 -11
5 -5 10 6 8 13 -10 27 -20 16 -25 17 -32 5 -4 -8 -19 -13 -33 -12 -16 2 -25
-2 -25 -11 0 -8 -4 -13 -9 -12 -5 2 -21 -10 -36 -26 -27 -29 -28 -29 -42 -10
-14 18 -15 17 -8 -11 l7 -30 -21 24 c-12 13 -21 19 -21 13 0 -7 -5 -12 -11
-12 -5 0 -7 5 -4 10 7 11 -3 13 -48 12 -15 0 -25 3 -22 8 3 5 -5 16 -17 24
-31 20 -78 10 -78 -16 0 -12 -4 -16 -11 -12 -7 4 -10 1 -7 -7 3 -8 11 -13 17
-11 7 1 10 -2 7 -7 -10 -15 51 -53 74 -46 12 4 20 2 20 -5 0 -6 4 -9 9 -6 5 3
11 -6 14 -19 2 -14 0 -28 -5 -31 -5 -3 -3 -13 4 -22 10 -12 10 -14 1 -8 -9 5
-13 1 -13 -10 0 -10 -3 -15 -6 -12 -8 8 -58 -40 -60 -58 -3 -20 -7 -24 -33
-29 -18 -3 -20 -1 -11 16 6 11 16 16 22 13 7 -5 8 -2 4 5 -6 9 -12 8 -26 -4
-10 -9 -35 -18 -56 -20 -32 -4 -34 -3 -14 4 24 9 23 9 -10 11 -19 1 -40 2 -46
1 -7 -1 -15 16 -19 36 -5 23 -10 32 -13 23 -3 -8 -11 17 -17 55 -8 54 -7 73 2
83 7 7 13 19 13 25 0 7 4 6 10 -3 7 -11 10 -11 10 -2 0 7 5 10 11 6 6 -3 16 0
21 7 6 9 7 2 2 -20 -6 -32 -5 -34 10 -19 9 9 16 22 16 28 0 7 8 10 19 7 14 -3
18 -1 14 9 -3 8 -9 14 -15 14 -5 0 -6 5 -3 10 3 6 2 10 -3 10 -6 0 -8 10 -4
22 4 15 2 19 -8 13 -7 -4 -15 -3 -19 4 -12 19 -86 24 -100 7 -7 -9 -17 -13
-22 -10 -5 3 -9 0 -9 -7 0 -8 -6 -6 -18 4 -10 10 -25 17 -32 17 -8 0 -35 23
-61 52 -46 51 -47 51 -78 38 -22 -9 -34 -21 -38 -41 -3 -16 -8 -27 -12 -25 -8
5 -25 -15 -29 -33 -2 -8 2 -17 8 -21 18 -11 1 -35 -27 -37 -14 0 -21 2 -15 6
6 4 -3 16 -23 30 -19 13 -32 28 -29 35 4 6 -5 -1 -18 -16 -27 -30 -48 -36 -48
-15 1 18 25 47 41 47 12 0 12 2 0 9 -11 7 -10 15 4 45 18 37 30 45 38 24 3 -7
6 4 6 25 1 29 -3 37 -16 37 -15 0 -16 2 -3 10 13 8 12 10 -4 10 -15 0 -17 5
-12 35 10 50 -11 45 -24 -6 -6 -23 -13 -39 -15 -37 -3 2 1 22 7 44 6 21 11 42
10 47 -1 4 4 7 10 7 9 0 8 4 -2 10 -8 5 -10 10 -3 10 6 0 10 8 9 17 -3 21 17
43 38 43 9 0 16 7 16 15 0 8 4 15 9 15 5 0 27 18 48 40 22 22 44 36 49 32 5
-5 28 -14 50 -21 34 -11 48 -11 78 0 32 12 38 11 46 -1 6 -9 6 -16 0 -18 -6
-2 -10 -10 -10 -17 0 -7 -16 -23 -35 -35 -40 -25 -44 -36 -14 -45 15 -5 17
-10 9 -20 -8 -9 -7 -14 4 -18 19 -8 27 4 21 31 -3 18 1 21 20 20 13 -1 21 -6
19 -10 -3 -4 -1 -8 5 -8 5 0 12 -10 14 -22 3 -14 5 -11 4 9 -1 18 3 31 8 30 6
-1 9 -5 7 -10 -1 -4 10 -5 25 -1 22 4 25 3 13 -5 -13 -10 -12 -13 5 -23 19
-11 19 -11 0 -19 -17 -6 -16 -7 6 -6 26 1 28 6 16 37 -10 26 -4 50 12 50 12 0
12 2 -2 13 -15 11 -15 15 -2 41 8 15 15 32 15 37 0 14 -28 11 -33 -3 -3 -7 -6
1 -7 17 -2 30 -2 30 -10 5 -4 -14 -8 -19 -9 -11 -1 12 -3 12 -13 -1 -16 -20
-58 -7 -58 18 0 10 -3 14 -7 11 -3 -4 -12 2 -20 13 -8 11 -26 20 -41 20 -15 1
-38 8 -52 16 -18 11 -20 14 -5 10 19 -6 19 -5 2 8 -34 26 -77 9 -161 -66 -20
-17 -36 -38 -36 -46 0 -7 -6 -12 -12 -9 -7 2 -21 0 -30 -5 -13 -6 -18 -5 -18
7 0 8 -4 15 -8 15 -5 0 -9 13 -10 30 0 21 8 37 34 59 19 17 34 33 34 36 0 3
-163 5 -362 5 l-363 0 -50 -25 c-56 -27 -89 -54 -123 -102 -13 -18 -30 -33
-38 -33 -23 0 -38 49 -27 91 l9 36 -45 -2 c-25 -1 -65 -8 -88 -15 -38 -12 -45
-11 -61 3 -31 28 -67 18 -150 -41 -18 -13 -32 -20 -31 -15 1 4 -2 23 -6 41
-12 50 -52 62 -201 62 l-123 0 2 -59z m1427 -6 c22 -27 3 -42 -85 -64 -90 -23
-105 -21 -105 8 0 26 17 37 80 54 72 20 95 20 110 2z m190 -150 c0 -8 -4 -15
-10 -15 -5 0 -10 7 -10 15 0 8 5 15 10 15 6 0 10 -7 10 -15z m25 -225 c3 -5
-1 -10 -10 -10 -9 0 -13 5 -10 10 3 6 8 10 10 10 2 0 7 -4 10 -10z m30 0 c3
-5 1 -10 -4 -10 -6 0 -11 5 -11 10 0 6 2 10 4 10 3 0 8 -4 11 -10z m898 -205
c-3 -9 -8 -14 -10 -11 -3 3 -2 9 2 15 9 16 15 13 8 -4z m-1993 -31 c0 -2 -11
-3 -24 -2 -14 1 -23 5 -20 9 4 7 44 0 44 -7z m1720 6 c-8 -5 -11 -12 -8 -16 9
-9 41 4 34 14 -2 4 4 8 14 9 23 2 46 -22 30 -32 -6 -4 -9 -1 -8 6 2 6 -3 14
-11 17 -8 2 -11 0 -8 -6 13 -19 -19 -34 -47 -21 -28 13 -33 24 -13 32 21 9 33
7 17 -3z m-1796 -28 c3 -5 -1 -9 -9 -9 -8 0 -12 4 -9 9 3 4 7 8 9 8 2 0 6 -4
9 -8z m50 -13 c-3 -5 -10 -7 -15 -3 -5 3 -7 10 -3 15 3 5 10 7 15 3 5 -3 7
-10 3 -15z m-284 -153 c0 -2 -7 -7 -16 -10 -8 -3 -12 -2 -9 4 6 10 25 14 25 6z
m2280 -25 c0 -3 -4 -12 -9 -19 -6 -11 -9 -9 -13 5 -3 12 0 20 8 20 8 0 14 -3
14 -6z m-400 -26 c0 -9 6 -12 18 -9 16 5 16 5 -1 -6 -9 -6 -22 -8 -27 -5 -13
8 -13 35 0 35 6 0 10 -7 10 -15z m-664 -70 c-8 -8 -18 -15 -22 -15 -3 0 -1 7
6 15 7 8 17 15 22 15 5 0 3 -7 -6 -15z m1079 5 c-3 -5 -12 -10 -18 -10 -7 0
-6 4 3 10 19 12 23 12 15 0z m-1101 -46 c3 -8 2 -12 -4 -9 -14 9 -13 3 9 -47
11 -24 32 -57 48 -74 26 -28 31 -30 42 -15 10 14 11 13 6 -5 -4 -14 0 -24 10
-28 8 -3 15 -1 15 4 0 6 21 10 48 9 26 0 41 -3 35 -6 -21 -8 -15 -19 13 -21
17 -1 23 2 18 10 -5 7 0 9 14 6 12 -4 22 -2 22 3 0 5 17 8 38 8 37 -1 37 -1 7
-9 -16 -4 -26 -8 -20 -9 5 0 0 -8 -12 -16 -13 -9 -20 -22 -17 -30 4 -8 1 -15
-5 -15 -6 0 -8 -6 -6 -12 6 -16 -58 -88 -77 -88 -8 0 -19 5 -26 12 -7 7 -12
10 -13 8 -6 -36 -10 -59 -11 -77 -1 -13 -6 -23 -10 -23 -5 0 -13 -12 -19 -27
-8 -20 -13 -24 -17 -13 -3 8 -11 19 -19 23 -7 5 -11 12 -9 16 3 4 -10 5 -28 3
-28 -3 -37 1 -55 27 -12 17 -29 31 -37 31 -8 0 -13 4 -10 9 9 14 -5 41 -21 41
-8 0 -11 -5 -7 -12 6 -10 4 -10 -7 0 -7 6 -22 12 -33 13 -21 0 -21 0 -1 9 14
6 15 9 5 10 -8 0 -24 8 -35 17 -13 10 -14 14 -4 10 18 -6 43 28 33 45 -4 7 -3
8 4 4 17 -11 53 -16 48 -7 -3 4 11 8 30 8 19 1 34 -4 35 -10 0 -7 4 -2 10 11
5 13 14 20 20 16 7 -4 6 3 -2 17 -7 13 -14 26 -14 29 0 3 -9 17 -19 33 -15 23
-16 32 -7 55 7 16 11 33 10 38 -2 9 11 44 16 44 2 0 6 -7 9 -16z m-48 -34 c-1
-16 -6 -33 -11 -37 -4 -4 -5 1 -1 11 4 12 2 23 -6 28 -10 6 -10 10 2 18 8 5
16 10 17 10 0 0 0 -13 -1 -30z m911 24 c-3 -3 -12 -4 -19 -1 -8 3 -5 6 6 6 11
1 17 -2 13 -5z m-1750 -18 c-8 -21 3 -27 27 -14 16 8 18 8 10 -1 -19 -21 -54
-22 -54 -2 0 17 8 31 18 31 2 0 2 -6 -1 -14z m-737 -36 c0 -5 -4 -10 -10 -10
-5 0 -10 5 -10 10 0 6 5 10 10 10 6 0 10 -4 10 -10z m2156 -26 c-3 -9 -6 -21
-6 -27 0 -7 -7 -4 -14 6 -8 10 -17 18 -20 18 -3 -1 -12 -1 -18 -1 -23 0 9 15
38 18 20 1 25 -2 20 -14z m128 -15 c-3 -5 -10 -7 -15 -3 -5 3 -7 10 -3 15 3 5
10 7 15 3 5 -3 7 -10 3 -15z m-918 -34 c8 -3 12 -10 9 -15 -5 -8 -11 -7 -20 0
-8 7 -18 9 -23 6 -5 -3 -9 1 -9 8 0 8 6 12 14 10 7 -2 20 -6 29 -9z m381 -7
c-3 -8 -6 -5 -6 6 -1 11 2 17 5 13 3 -3 4 -12 1 -19z m534 -21 c-10 -9 -11 -8
-5 6 3 10 9 15 12 12 3 -3 0 -11 -7 -18z m-1727 -23 c9 -24 2 -26 -12 -4 -7
11 -8 20 -3 20 5 0 12 -7 15 -16z m1036 -8 c0 -2 -7 -7 -16 -10 -8 -3 -12 -2
-9 4 6 10 25 14 25 6z m454 -17 c-2 -4 -13 -6 -24 -4 -13 3 -20 -2 -20 -12 0
-9 -3 -14 -6 -10 -13 13 5 33 29 33 14 0 24 -3 21 -7z m254 -11 c-6 -18 -28
-21 -28 -4 0 9 7 16 16 16 9 0 14 -5 12 -12z m-348 -17 c0 -6 -4 -12 -8 -15
-5 -3 -9 1 -9 9 0 8 4 15 9 15 4 0 8 -4 8 -9z m-1435 -32 c6 -17 9 -19 16 -8
10 15 9 17 15 -49 2 -29 -1 -33 -28 -39 -22 -4 -26 -8 -16 -15 10 -7 10 -11 1
-15 -7 -2 -13 -15 -13 -27 0 -13 -9 -31 -20 -41 -11 -10 -17 -22 -13 -28 3 -5
2 -7 -4 -4 -5 3 -15 -3 -23 -13 -8 -10 -18 -16 -24 -13 -6 3 14 -17 44 -45 50
-47 68 -58 123 -76 11 -3 21 -15 24 -26 3 -11 10 -17 16 -13 6 4 8 0 4 -10 -3
-9 0 -23 8 -31 8 -7 13 -15 12 -17 -1 -3 4 2 11 10 6 8 12 18 12 23 0 4 -6 8
-12 9 -7 0 0 5 16 9 17 5 36 5 46 0 23 -12 39 1 29 25 -7 18 -8 18 -9 -5 -1
-14 -4 -19 -7 -12 -2 6 -11 12 -19 12 -8 0 -14 7 -14 16 0 8 -4 12 -10 9 -5
-3 -10 -1 -10 4 0 6 4 11 10 11 5 0 7 7 4 15 -4 8 -10 12 -15 9 -5 -3 -9 4 -9
15 0 12 -4 21 -9 21 -5 0 -14 14 -20 31 -13 39 -14 42 -1 34 6 -3 10 0 10 7 0
15 65 48 92 48 18 0 49 -69 53 -116 1 -16 10 -44 19 -62 9 -17 16 -34 16 -37
-2 -46 2 -57 20 -62 11 -3 23 -16 26 -29 3 -12 13 -25 22 -27 23 -5 -52 -26
-80 -22 -66 8 -113 17 -137 27 -32 14 -55 11 -103 -10 -23 -10 -36 -22 -33
-30 3 -7 1 -10 -4 -7 -5 3 -12 1 -16 -4 -5 -9 -42 -7 -51 2 -2 1 -5 21 -8 42
-2 22 -5 43 -5 46 -1 3 -29 14 -63 25 -81 24 -93 36 -91 93 1 25 2 66 3 90 0
25 6 51 12 58 7 9 7 13 -1 13 -7 0 -9 5 -6 10 4 6 10 8 15 5 5 -3 11 -1 15 4
3 6 12 8 20 4 10 -3 15 1 15 13 0 16 2 17 10 4 5 -8 10 -13 11 -10 6 34 9 43
15 48 4 4 4 -1 1 -10 -4 -10 -2 -18 3 -18 6 0 10 8 10 18 0 11 11 24 25 30 14
6 25 20 26 29 0 16 2 15 9 -2 7 -16 9 -12 10 20 1 32 3 36 10 20 8 -19 9 -19
9 2 1 12 -7 27 -16 32 -16 9 -17 10 -1 11 9 0 20 -10 23 -21z m55 -9 c0 -5 -4
-10 -10 -10 -5 0 -10 5 -10 10 0 6 5 10 10 10 6 0 10 -4 10 -10z m-3 -42 c-3
-8 -6 -5 -6 6 -1 11 2 17 5 13 3 -3 4 -12 1 -19z m1690 -10 c-3 -8 -6 -5 -6 6
-1 11 2 17 5 13 3 -3 4 -12 1 -19z m-87 -2 c0 -3 -4 -8 -10 -11 -5 -3 -10 -1
-10 4 0 6 5 11 10 11 6 0 10 -2 10 -4z m30 -39 c0 -5 -5 -5 -10 -2 -6 3 -13
-1 -16 -9 -3 -9 -10 -16 -15 -16 -10 0 0 30 15 46 11 12 25 1 26 -19z m-2397
-13 c23 -8 10 -43 -14 -37 -11 3 -19 0 -19 -6 0 -7 -4 -10 -9 -6 -5 3 -12 1
-16 -5 -8 -13 -25 -13 -25 1 0 5 5 7 10 4 6 -3 10 1 10 9 0 9 7 16 16 16 8 0
13 4 10 9 -4 5 0 12 6 14 7 3 14 6 15 6 1 1 8 -2 16 -5z m2580 -37 c-3 -5 -9
-3 -14 4 -4 7 -5 17 -2 22 3 5 9 3 14 -4 4 -7 5 -17 2 -22z m-1313 -7 c-8 -5
-24 -10 -35 -10 -17 0 -17 2 -5 10 8 5 24 10 35 10 17 0 17 -2 5 -10z m-1300
-31 c0 -5 5 -7 10 -4 6 3 10 1 10 -4 0 -6 -7 -11 -15 -11 -9 0 -12 -6 -8 -16
5 -14 3 -15 -15 -5 -24 13 -29 37 -9 44 20 9 27 8 27 -4z m-100 -44 c7 -8 21
-15 31 -15 11 0 19 -5 19 -11 0 -8 -14 -9 -42 -5 -49 8 -52 10 -45 31 8 19 21
19 37 0z m2475 -35 c10 -16 -3 -29 -24 -23 -16 4 -17 8 -8 19 14 16 24 17 32
4z m-2588 -47 c-4 -3 -2 -12 5 -20 8 -11 7 -12 -6 -7 -9 3 -16 9 -16 13 0 9
11 21 18 21 3 0 2 -3 -1 -7z m2216 -118 c-3 -9 -8 -14 -10 -11 -3 3 -2 9 2 15
9 16 15 13 8 -4z m-2003 -34 c-12 -24 -30 -28 -30 -7 0 8 -4 17 -9 20 -5 4 -7
-3 -4 -14 3 -12 0 -20 -7 -20 -18 0 -7 43 13 46 9 1 15 -2 12 -6 -3 -5 0 -12
6 -15 6 -4 13 3 16 16 4 13 8 18 10 12 3 -7 -1 -21 -7 -32z m2436 21 c-9 -15
-43 -21 -43 -7 0 7 8 10 19 7 10 -2 18 1 18 9 0 7 3 10 6 6 3 -3 3 -10 0 -15z
m-2597 -24 c-17 -34 -19 -34 -19 -5 0 18 5 27 15 27 13 0 14 -4 4 -22z m-32
-10 c-3 -8 -6 -5 -6 6 -1 11 2 17 5 13 3 -3 4 -12 1 -19z m-17 -8 c0 -9 -31
-23 -37 -16 -3 3 1 11 8 19 14 15 29 13 29 -3z m90 -89 c0 -13 2 -14 9 -1 6 8
7 18 5 22 -3 5 20 7 50 6 31 -2 56 -6 56 -10 0 -5 -8 -8 -17 -8 -15 0 -16 -2
-3 -10 11 -7 4 -10 -27 -10 -60 0 -72 -7 -67 -38 3 -23 2 -24 -7 -9 -11 18
-29 15 -29 -6 0 -7 4 -6 11 3 8 12 9 10 4 -9 -5 -15 -3 -21 3 -17 6 3 13 2 16
-3 4 -5 -1 -8 -10 -7 -22 3 -34 27 -28 56 5 20 3 22 -6 10 -10 -13 -11 -13 -7
0 2 8 11 14 19 12 8 -1 15 4 15 12 0 8 -6 12 -13 9 -6 -2 -15 0 -19 6 -4 7 0
8 11 4 12 -4 15 -3 10 5 -5 8 -2 10 8 6 9 -3 16 -14 16 -23z m1355 20 c11 -5
32 -5 47 0 20 5 32 2 48 -13 18 -17 24 -18 32 -7 8 12 9 11 5 -1 -3 -12 -19
-14 -77 -13 -70 3 -106 16 -94 34 6 10 12 10 39 0z m-1510 -11 c3 -5 -3 -10
-14 -10 -12 0 -21 5 -21 10 0 6 6 10 14 10 8 0 18 -4 21 -10z m5 -30 c0 -5 -9
-10 -21 -10 -11 0 -17 5 -14 10 3 6 13 10 21 10 8 0 14 -4 14 -10z m210 -8 c0
-4 -9 -8 -20 -8 -11 0 -20 4 -20 8 0 4 9 8 20 8 11 0 20 -4 20 -8z m30 -2 c0
-5 -2 -10 -4 -10 -3 0 -8 5 -11 10 -3 6 -1 10 4 10 6 0 11 -4 11 -10z m-254
-22 c4 -7 3 -8 -4 -4 -7 4 -12 1 -13 -6 0 -10 -2 -11 -6 0 -4 10 -8 10 -19 1
-8 -7 -17 -9 -21 -5 -3 3 -1 6 6 6 7 0 10 4 7 8 -2 4 6 9 19 10 13 1 27 -3 31
-10z m202 -33 c-3 -3 -9 2 -12 12 -6 14 -5 15 5 6 7 -7 10 -15 7 -18z m3289
-47 c2 -18 0 -20 -7 -8 -12 18 -13 30 -2 30 4 0 9 -10 9 -22z m-21 -20 c4 -7
3 -8 -4 -4 -7 4 -12 0 -12 -10 0 -10 -3 -15 -6 -11 -7 6 2 37 10 37 3 0 8 -5
12 -12z m-2140 -44 c77 -19 147 -37 156 -39 9 -2 39 -14 65 -26 26 -12 50 -23
53 -23 3 -1 21 -11 41 -24 20 -12 45 -22 56 -22 43 0 102 -91 103 -157 l0 -33
-67 0 c-38 0 -133 5 -213 11 -99 7 -161 7 -195 0 -27 -5 -144 -15 -260 -21
-115 -6 -290 -20 -388 -32 -207 -25 -216 -23 -172 43 26 40 29 51 24 110 -1
16 11 45 28 70 16 24 35 59 43 77 23 60 48 82 88 82 43 -1 72 -19 72 -46 0
-10 -16 -36 -36 -56 -19 -21 -32 -42 -29 -48 4 -6 -1 -7 -11 -3 -12 4 -15 3
-10 -5 4 -7 2 -12 -5 -12 -7 0 -10 -2 -7 -5 3 -3 24 1 46 9 23 9 42 13 42 11
0 -2 29 12 65 30 36 19 65 31 65 27 0 -4 4 -2 8 5 8 13 79 63 90 63 4 0 34 11
67 25 80 33 118 31 281 -11z m-1172 10 c8 -21 8 -24 -3 -24 -5 0 -11 9 -14 20
-6 24 8 27 17 4z m60 -250 c9 -3 13 -10 10 -15 -3 -5 0 -9 5 -9 6 0 11 6 11
13 1 7 6 5 14 -5 7 -10 15 -17 17 -15 2 1 -3 -4 -11 -11 -8 -7 -14 -18 -12
-23 1 -6 -2 -8 -7 -5 -5 4 -12 2 -16 -3 -11 -18 -35 1 -35 28 0 20 2 23 10 11
8 -12 10 -12 10 -1 0 8 -8 20 -17 27 -19 14 -6 18 21 8z m98 -17 c-4 -14 -7
-16 -13 -5 -12 19 -11 25 5 25 8 0 11 -8 8 -20z m-172 -127 c-8 -5 -19 -10
-25 -10 -5 0 -3 5 5 10 8 5 20 10 25 10 6 0 3 -5 -5 -10z m-522 -565 c-3 -3
-9 2 -12 12 -6 14 -5 15 5 6 7 -7 10 -15 7 -18z"/>
<path d="M2060 3860 c0 -5 5 -10 11 -10 5 0 7 5 4 10 -3 6 -8 10 -11 10 -2 0
-4 -4 -4 -10z"/>
<path d="M2670 3450 c0 -5 5 -10 10 -10 6 0 10 5 10 10 0 6 -4 10 -10 10 -5 0
-10 -4 -10 -10z"/>
<path d="M4017 5220 c-5 -24 -11 -31 -23 -26 -24 9 -48 -19 -34 -41 10 -17 10
-17 8 1 -2 10 3 21 11 24 8 3 11 0 7 -6 -3 -6 -2 -13 4 -17 5 -3 10 0 10 7 0
9 3 9 10 -2 6 -10 10 -11 10 -2 0 6 6 12 14 12 16 0 26 22 25 53 0 12 -3 16
-6 9 -4 -10 -8 -9 -17 4 -12 15 -14 13 -19 -16z"/>
<path d="M3593 5171 c0 -11 5 -18 9 -15 4 3 5 11 1 19 -7 21 -12 19 -10 -4z"/>
<path d="M3920 5101 c0 -6 4 -13 10 -16 6 -3 7 1 4 9 -7 18 -14 21 -14 7z"/>
<path d="M3973 5103 c-15 -5 -18 -43 -4 -43 5 0 11 11 13 25 3 14 5 25 4 24 0
0 -7 -3 -13 -6z"/>
<path d="M3889 5088 c-1 -2 -3 -26 -4 -55 -2 -52 5 -61 32 -36 7 6 13 20 13
30 0 15 -2 16 -10 3 -9 -13 -14 -7 -11 13 0 4 -4 7 -10 7 -5 0 -7 5 -4 10 4 6
12 7 18 3 7 -4 6 0 -2 10 -13 16 -19 20 -22 15z"/>
<path d="M3727 5073 c-9 -14 8 -33 21 -24 10 6 10 10 -2 20 -8 7 -17 8 -19 4z"/>
<path d="M3650 5034 c0 -8 5 -12 10 -9 6 3 10 10 10 16 0 5 -4 9 -10 9 -5 0
-10 -7 -10 -16z"/>
<path d="M3450 5021 c0 -5 5 -13 10 -16 6 -3 10 -2 10 4 0 5 -4 13 -10 16 -5
3 -10 2 -10 -4z"/>
<path d="M3790 5005 c-11 -13 -10 -14 4 -9 9 3 16 10 16 15 0 13 -6 11 -20 -6z"/>
<path d="M3450 4975 c5 -7 6 -16 2 -21 -4 -5 -3 -5 2 -1 15 12 15 34 0 34 -9
0 -11 -4 -4 -12z"/>
<path d="M5123 4978 c-2 -5 1 -8 6 -8 6 0 11 -9 11 -20 0 -11 -6 -20 -12 -20
-10 0 -10 -2 0 -9 7 -4 12 -14 10 -21 -2 -10 8 -14 35 -13 28 1 37 -2 37 -15
0 -12 12 -4 35 23 20 22 31 41 25 43 -5 2 -10 12 -10 22 0 23 -49 37 -61 18
-5 -7 -9 -8 -9 -3 0 12 -60 14 -67 3z"/>
<path d="M4094 4959 c-2 -4 0 -10 5 -13 5 -4 12 -2 16 4 4 6 10 8 15 5 5 -3
11 -2 14 3 2 4 -7 8 -20 8 -14 0 -27 -3 -30 -7z"/>
<path d="M5178 4863 c7 -3 16 -2 19 1 4 3 -2 6 -13 5 -11 0 -14 -3 -6 -6z"/>
<path d="M5085 4770 c2 -4 -5 -13 -16 -20 -19 -14 -28 -47 -9 -35 9 5 14 -25
8 -41 -2 -3 8 -12 22 -19 20 -11 21 -14 7 -15 -10 0 -16 -4 -13 -9 4 -5 33 -1
69 10 34 10 75 21 92 24 l30 7 -25 18 c-18 13 -29 16 -42 9 -14 -8 -16 -6 -11
7 4 11 2 15 -4 11 -14 -9 -43 2 -43 14 0 5 12 7 28 4 15 -3 20 -2 12 2 -8 3
-21 12 -29 20 -7 8 -20 12 -27 9 -8 -3 -14 -2 -14 2 0 4 -9 8 -19 8 -11 0 -18
-3 -16 -6z"/>
<path d="M2322 4715 c0 -16 2 -22 5 -12 2 9 2 23 0 30 -3 6 -5 -1 -5 -18z"/>
<path d="M2350 4704 c0 -8 5 -12 10 -9 6 4 8 11 5 16 -9 14 -15 11 -15 -7z"/>
<path d="M4937 4679 c4 -13 8 -18 11 -10 2 7 -1 18 -6 23 -8 8 -9 4 -5 -13z"/>
<path d="M4962 4650 c-16 -26 -15 -38 3 -57 8 -8 12 -20 8 -26 -4 -6 -10 -2
-14 12 -7 18 -12 20 -29 11 -11 -6 -20 -7 -19 -3 3 20 -2 34 -11 28 -6 -4 -8
-11 -4 -16 3 -6 -1 -18 -10 -27 -10 -12 -12 -22 -6 -32 6 -9 4 -20 -3 -29 -8
-10 -2 -9 20 4 18 10 30 22 27 27 -3 5 -9 6 -13 4 -4 -3 -13 -1 -20 3 -9 6
-10 11 -2 15 6 4 11 2 11 -4 0 -6 5 -8 10 -5 6 4 17 2 23 -4 9 -7 21 -5 42 9
17 11 25 20 19 20 -18 0 -33 44 -22 64 14 24 5 29 -10 6z"/>
<path d="M4925 4627 c-4 -10 -5 -21 -1 -24 10 -10 18 4 13 24 -4 17 -4 17 -12
0z"/>
<path d="M3912 4615 c-11 -12 -10 -15 3 -15 8 0 15 7 15 15 0 18 -2 18 -18 0z"/>
<path d="M2445 4610 c-3 -5 -1 -10 4 -10 6 0 11 5 11 10 0 6 -2 10 -4 10 -3 0
-8 -4 -11 -10z"/>
<path d="M3915 4580 c-3 -5 -1 -10 4 -10 6 0 11 5 11 10 0 6 -2 10 -4 10 -3 0
-8 -4 -11 -10z"/>
<path d="M4476 4565 c6 -15 4 -16 -15 -6 -17 9 -21 9 -19 -1 2 -6 -3 -13 -9
-14 -7 -1 -16 -3 -20 -4 -5 -1 -11 -2 -15 -1 -5 0 -8 -4 -8 -10 0 -6 7 -9 15
-5 10 4 15 -1 16 -17 0 -21 1 -21 9 -2 8 18 9 18 9 2 1 -26 23 -16 44 20 15
27 16 32 2 43 -13 11 -14 10 -9 -5z"/>
<path d="M1886 4493 c-3 -7 1 -13 8 -13 8 0 16 6 19 13 3 8 -1 14 -9 14 -7 0
-15 -6 -18 -14z"/>
<path d="M4336 4499 c2 -4 0 -10 -6 -14 -6 -4 -8 -11 -4 -16 3 -5 10 -7 15 -3
5 3 7 10 4 15 -9 13 9 11 22 -2 9 -9 11 -7 9 6 -2 11 -12 19 -24 20 -12 1 -19
-2 -16 -6z"/>
<path d="M1922 4471 c-11 -7 -11 -9 2 -14 10 -4 16 -1 16 8 0 17 -1 17 -18 6z"/>
<path d="M1805 4441 c-3 -5 0 -13 6 -16 5 -4 8 -13 5 -21 -3 -7 -2 -15 2 -18
4 -3 8 4 9 14 1 11 -3 22 -8 25 -5 4 -7 11 -4 16 4 5 4 9 1 9 -3 0 -7 -4 -11
-9z"/>
<path d="M4516 4415 c-27 -8 -54 -19 -60 -26 -8 -9 -7 -10 4 -3 8 4 46 16 85
25 38 10 59 17 45 17 -14 0 -47 -6 -74 -13z"/>
<path d="M1566 4303 c-6 -14 -5 -15 5 -6 7 7 10 15 7 18 -3 3 -9 -2 -12 -12z"/>
<path d="M2100 4209 c0 -5 5 -7 10 -4 6 3 10 8 10 11 0 2 -4 4 -10 4 -5 0 -10
-5 -10 -11z"/>
<path d="M4641 4193 c7 -19 7 -29 0 -31 -6 -2 -11 -8 -11 -13 0 -6 4 -8 9 -5
10 6 25 -24 16 -32 -3 -3 -5 1 -5 8 0 7 -3 10 -7 7 -10 -10 -32 13 -27 28 3 7
0 16 -6 20 -6 3 -10 3 -9 -2 3 -18 -1 -33 -10 -33 -5 0 -8 6 -7 13 0 6 -3 13
-9 15 -5 1 -11 -7 -11 -18 -1 -11 3 -17 7 -14 5 3 9 1 9 -5 0 -5 3 -16 6 -25
4 -11 1 -16 -10 -16 -9 0 -16 5 -16 10 0 6 -7 10 -15 10 -8 0 -15 -7 -15 -17
0 -9 -3 -14 -6 -10 -9 9 6 48 17 42 5 -4 9 -1 9 4 0 15 -13 14 -28 -1 -14 -14
-62 -19 -62 -6 0 5 -9 4 -20 -2 -14 -7 -20 -7 -20 0 0 5 -7 10 -15 10 -13 0
-19 -11 -16 -32 0 -3 -14 -11 -32 -17 -26 -10 -29 -14 -17 -22 13 -8 13 -11
-1 -22 -8 -6 -19 -21 -23 -32 -8 -19 -8 -19 -17 3 -4 12 -14 22 -21 22 -9 0
-9 -3 2 -10 12 -8 13 -11 1 -19 -11 -7 -11 -10 0 -15 8 -3 6 -5 -6 -3 -19 2
-72 -41 -67 -55 1 -5 -7 -8 -18 -8 -11 0 -20 5 -20 10 0 6 -6 10 -14 10 -8 0
-17 6 -19 13 -4 8 -6 9 -6 0 -2 -23 31 -43 69 -43 29 0 42 -5 50 -20 6 -11 15
-20 21 -20 6 0 7 4 4 10 -3 6 1 7 9 4 9 -3 13 -11 9 -18 -3 -6 -1 -6 8 2 7 6
25 12 39 12 15 0 30 3 34 7 6 7 12 9 50 16 11 2 22 9 24 15 2 6 10 8 18 5 8
-3 14 0 14 7 0 7 6 10 14 7 7 -3 17 -2 22 3 5 4 26 13 46 19 28 9 36 17 33 31
-2 11 -1 19 3 19 22 -3 32 3 32 20 0 11 4 23 10 26 6 4 7 -1 4 -12 -4 -14 -1
-12 15 6 12 13 21 17 21 10 0 -22 11 -2 20 35 4 21 4 34 -1 30 -5 -3 -9 -13
-9 -22 -1 -15 -2 -15 -11 2 -9 14 -8 21 2 28 11 8 10 9 -3 4 -15 -4 -16 0 -11
24 3 19 1 30 -6 30 -6 0 -11 7 -11 15 0 8 -4 15 -10 15 -6 0 -6 -10 1 -27z
m-40 -126 c-10 -9 -11 -8 -5 6 3 10 9 15 12 12 3 -3 0 -11 -7 -18z m-21 -87
c0 -5 -4 -10 -10 -10 -5 0 -10 5 -10 10 0 6 5 10 10 10 6 0 10 -4 10 -10z"/>
<path d="M1525 4154 c-3 -26 -9 -52 -12 -60 -3 -9 2 -11 17 -7 16 4 18 8 8 14
-10 6 -9 11 7 23 20 15 20 15 0 16 -16 0 -17 2 -5 10 8 5 11 12 7 16 -4 4 -2
13 4 21 9 10 8 13 -4 13 -10 0 -17 -15 -22 -46z"/>
<path d="M2210 4180 c0 -5 5 -10 10 -10 6 0 10 5 10 10 0 6 -4 10 -10 10 -5 0
-10 -4 -10 -10z"/>
<path d="M5240 4131 c0 -5 -7 -12 -16 -15 -8 -3 -12 -2 -9 4 10 17 -4 11 -24
-9 -25 -25 -45 -91 -28 -92 7 0 3 -4 -8 -9 -17 -7 -14 -9 15 -10 19 -1 27 -4
18 -7 -10 -2 -21 -15 -24 -29 -3 -13 -10 -24 -15 -24 -5 0 -9 -4 -9 -9 0 -6 9
-8 21 -6 17 4 19 2 8 -11 -6 -8 -9 -17 -5 -21 3 -3 6 -1 6 5 0 7 3 11 8 10 4
-1 17 4 30 11 13 7 30 10 37 7 7 -2 21 6 29 19 11 17 12 23 4 21 -7 -1 -10 -1
-5 1 4 3 5 9 2 14 -4 5 1 6 9 3 9 -3 16 -1 16 5 0 6 -4 11 -10 11 -5 0 -10 9
-10 20 0 13 -5 18 -15 14 -21 -9 -19 1 9 30 13 15 31 26 40 26 9 0 16 7 16 15
0 19 -17 19 -37 0 -15 -16 -38 -11 -28 6 3 5 -1 6 -10 3 -11 -5 -14 -2 -9 10
3 9 3 16 0 16 -3 0 -6 -4 -6 -9z"/>
<path d="M4327 4103 c-10 -9 -9 -23 1 -23 5 0 9 7 9 15 0 17 -1 18 -10 8z"/>
<path d="M4954 4048 c-4 -6 -3 -8 3 -5 6 4 16 0 23 -9 13 -15 15 -51 5 -135
-3 -25 -1 -57 4 -70 7 -18 10 -3 10 62 1 59 6 91 16 105 8 10 15 29 15 42 0
19 -5 22 -34 22 -19 0 -38 -5 -42 -12z"/>
<path d="M4903 4039 c-18 -5 -33 -12 -33 -15 0 -3 9 -2 20 1 23 7 24 3 9 -28
-10 -21 -10 -21 5 -3 9 11 16 24 16 29 0 5 7 7 14 4 10 -4 13 -1 9 9 -3 7 -6
14 -7 13 0 0 -16 -5 -33 -10z"/>
<path d="M4879 3956 c5 -6 7 -19 6 -29 -3 -15 -1 -16 11 -6 10 8 11 15 4 24
-5 6 -8 14 -5 17 3 2 -2 5 -10 5 -9 0 -11 -4 -6 -11z"/>
<path d="M5291 3904 c0 -11 3 -14 6 -6 3 7 2 16 -1 19 -3 4 -6 -2 -5 -13z"/>
<path d="M4220 3885 c-7 -9 -8 -15 -2 -15 5 0 12 7 16 15 3 8 4 15 2 15 -2 0
-9 -7 -16 -15z"/>
<path d="M4996 3785 c-9 -26 -7 -32 5 -12 6 10 9 21 6 23 -2 3 -7 -2 -11 -11z"/>
<path d="M4460 3752 c0 -5 7 -13 16 -16 10 -4 14 -1 12 6 -5 15 -28 23 -28 10z"/>
<path d="M3700 3716 c0 -2 7 -7 16 -10 8 -3 12 -2 9 4 -6 10 -25 14 -25 6z"/>
<path d="M372 3650 c0 -14 2 -19 5 -12 2 6 2 18 0 25 -3 6 -5 1 -5 -13z"/>
<path d="M4610 3600 c0 -11 5 -20 10 -20 6 0 10 9 10 20 0 11 -4 20 -10 20 -5
0 -10 -9 -10 -20z"/>
<path d="M340 3544 c-23 -13 -24 -14 -4 -14 25 0 38 -41 20 -61 -8 -9 -8 -10
0 -6 7 4 14 0 18 -8 4 -11 -1 -15 -19 -15 -30 0 -41 -16 -24 -36 11 -14 13
-14 21 0 5 9 16 16 25 16 11 0 8 -6 -11 -21 -14 -11 -24 -24 -21 -29 3 -5 1
-11 -5 -15 -5 -3 -10 3 -10 14 0 25 -12 32 -30 20 -12 -7 -12 -9 4 -9 11 0 16
-5 13 -14 -3 -8 4 -23 16 -34 19 -18 30 -20 77 -14 l55 7 3 65 c3 63 -12 115
-30 104 -4 -3 -8 3 -8 13 -1 47 -42 64 -90 37z m70 -44 c0 -5 -7 -7 -15 -4 -8
4 -15 8 -15 10 0 2 7 4 15 4 8 0 15 -4 15 -10z"/>
<path d="M4148 3523 c26 -10 10 -18 -31 -15 -31 3 -49 -1 -60 -13 -10 -9 -17
-12 -17 -6 0 6 -4 11 -10 11 -5 0 -7 -8 -3 -17 5 -15 3 -14 -10 2 -15 18 -16
19 -17 2 0 -10 -4 -15 -10 -12 -6 4 -10 -7 -10 -24 0 -21 -5 -31 -15 -31 -9 0
-18 -12 -21 -30 -4 -16 -10 -28 -14 -25 -4 3 -10 -4 -13 -15 -6 -23 8 -27 17
-5 6 15 36 10 36 -7 0 -5 -5 -6 -10 -3 -6 4 -17 1 -26 -5 -11 -10 -11 -16 -3
-26 6 -8 16 -11 23 -7 6 3 7 2 3 -3 -5 -5 -12 -9 -16 -9 -14 0 -41 -34 -42
-52 0 -16 -1 -16 -8 2 -7 19 -8 19 -18 0 -10 -17 -11 -17 -18 5 -5 15 -3 26 4
28 6 2 11 15 11 28 0 13 5 24 11 24 5 0 7 5 4 10 -3 6 -1 10 4 10 6 0 11 7 11
15 0 8 -4 15 -10 15 -12 0 -30 -34 -30 -58 0 -28 -37 -34 -78 -15 -31 15 -33
18 -17 29 9 7 14 17 10 23 -3 6 -1 11 4 11 6 0 11 -4 11 -9 0 -15 33 -22 44
-10 8 9 8 10 0 6 -6 -4 -20 0 -30 8 -26 20 -44 18 -44 -4 0 -10 -9 -21 -21
-24 -15 -4 -19 -2 -15 8 3 10 0 12 -11 8 -13 -5 -15 -2 -10 11 4 9 3 15 -2 11
-5 -3 -11 -1 -13 5 -1 5 -3 -29 -3 -76 0 -94 11 -111 68 -105 17 2 29 -3 33
-13 3 -9 14 -16 24 -16 10 0 23 -7 30 -15 7 -8 15 -13 19 -11 3 2 20 -2 38 -9
26 -11 32 -19 31 -44 -1 -27 -4 -31 -22 -25 -44 12 -55 15 -74 19 -24 4 -69
-30 -52 -40 6 -3 8 -10 5 -14 -2 -5 6 -7 18 -6 12 1 31 -2 42 -7 18 -8 18 -8
-2 -4 -13 2 -23 0 -23 -5 0 -5 -7 -9 -15 -9 -18 0 -18 -1 -5 -36 8 -21 7 -32
-5 -51 -13 -20 -14 -27 -4 -40 12 -13 14 -13 20 4 6 15 8 15 8 2 2 -33 24 -39
70 -18 38 16 42 17 30 2 -13 -15 -12 -15 9 -4 12 7 20 16 16 22 -6 10 45 56
58 51 5 -1 8 4 8 12 0 8 7 16 14 19 10 4 13 1 10 -7 -3 -8 0 -17 7 -22 8 -5
10 -3 4 7 -5 8 -4 11 0 6 12 -10 14 -47 3 -47 -5 0 -3 -10 3 -22 7 -13 12 -24
11 -25 -8 -12 2 -32 18 -36 11 -3 20 0 20 6 0 6 3 7 7 4 3 -4 18 3 31 15 14
13 22 16 18 8 -4 -8 3 -2 16 15 13 16 47 56 76 89 29 32 55 69 58 82 3 13 10
22 14 19 12 -7 23 26 21 63 -2 18 2 32 9 32 6 0 8 5 4 12 -4 6 1 17 11 25 17
12 17 13 2 13 -9 0 -17 5 -17 10 0 7 -6 7 -19 1 -16 -9 -18 -7 -15 16 2 17 -6
33 -24 50 -21 19 -23 26 -12 33 11 7 10 11 -4 25 -9 9 -23 14 -31 11 -8 -3
-14 -2 -12 2 1 4 -2 8 -8 10 -5 2 -13 -7 -17 -20 -4 -16 -6 -18 -7 -5 -1 9 -5
17 -11 17 -5 0 -10 9 -10 20 0 11 5 20 11 20 6 0 17 7 25 15 9 8 13 15 9 15
-4 0 1 7 10 16 15 15 15 18 -1 35 -10 11 -12 19 -6 19 7 0 12 5 12 11 0 5 -4
7 -10 4 -5 -3 -10 1 -10 9 0 19 -5 20 -30 6 -13 -7 -19 -6 -24 5 -3 8 -11 15
-18 14 -10 0 -10 -2 0 -6z m-48 -27 c0 -2 -7 -7 -16 -10 -8 -3 -12 -2 -9 4 6
10 25 14 25 6z m-128 -110 c3 -17 1 -23 -8 -19 -10 3 -12 18 -5 41 3 9 9 -2
13 -22z m218 -77 c0 -6 -4 -7 -10 -4 -5 3 -10 11 -10 16 0 6 5 7 10 4 6 -3 10
-11 10 -16z m-370 -49 c0 -5 -4 -10 -10 -10 -5 0 -10 5 -10 10 0 6 5 10 10 10
6 0 10 -4 10 -10z"/>
<path d="M312 3504 c-14 -16 -5 -18 17 -5 7 5 9 11 5 14 -5 3 -15 -1 -22 -9z"/>
<path d="M927 3489 c7 -7 15 -10 18 -7 3 3 -2 9 -12 12 -14 6 -15 5 -6 -5z"/>
<path d="M310 3459 c0 -5 5 -7 10 -4 6 3 10 8 10 11 0 2 -4 4 -10 4 -5 0 -10
-5 -10 -11z"/>
<path d="M5085 3460 c-3 -5 3 -10 14 -10 12 0 21 5 21 10 0 6 -6 10 -14 10 -8
0 -18 -4 -21 -10z"/>
<path d="M5120 3422 c0 -5 7 -13 16 -16 14 -5 14 -9 3 -23 -10 -12 -10 -14 -1
-9 7 4 12 2 12 -4 0 -7 6 -10 13 -7 8 3 14 0 14 -7 0 -6 -8 -12 -18 -12 -10 0
-15 5 -12 10 4 5 1 6 -7 1 -10 -6 -10 -10 3 -20 12 -9 14 -14 5 -23 -9 -9 -9
-12 3 -12 12 0 12 -2 -1 -10 -11 -7 -11 -10 -2 -10 8 0 10 -5 5 -12 -4 -7 -6
-23 -4 -35 1 -14 -3 -23 -11 -23 -10 0 -10 -2 0 -8 9 -6 10 -15 3 -33 -5 -13
-10 -19 -10 -12 -1 7 -8 10 -17 6 -13 -5 -13 -7 -2 -14 10 -7 8 -9 -6 -9 -12
0 -16 -5 -12 -16 3 -8 2 -12 -4 -9 -16 10 -11 -12 7 -31 16 -16 16 -16 -5 -10
-13 5 -22 3 -22 -3 0 -6 -5 -11 -11 -11 -6 0 -9 6 -6 13 3 9 -2 13 -16 12 -12
-1 -22 -8 -23 -16 -2 -28 -4 -30 -26 -15 -12 9 -30 16 -39 16 -27 0 -17 29 12
35 31 7 61 35 38 35 -8 0 -25 10 -39 23 -32 29 -41 32 -51 15 -6 -9 -9 -4 -10
17 -1 24 -3 25 -6 8 -2 -13 -9 -23 -14 -23 -6 0 -7 5 -4 10 13 21 -29 9 -51
-15 -13 -14 -29 -25 -36 -25 -7 0 -22 -8 -33 -16 -20 -16 -19 -16 4 -9 16 5
21 4 17 -4 -4 -6 -14 -11 -23 -11 -13 0 -14 -2 -2 -17 10 -11 10 -14 2 -9 -9
5 -13 -1 -12 -21 0 -15 3 -23 5 -16 7 17 34 4 35 -16 0 -10 3 -8 10 7 5 13 6
29 2 34 -3 7 -1 8 5 4 7 -4 12 -18 12 -32 0 -17 4 -23 12 -18 8 5 9 2 5 -9 -3
-10 -2 -17 3 -17 6 0 10 -5 10 -10 0 -12 -23 -9 -30 5 -3 6 -20 7 -40 4 l-35
-6 33 -2 c23 -1 32 -6 32 -18 0 -13 -3 -14 -12 -5 -30 30 -37 6 -8 -29 11 -13
23 -28 27 -34 11 -14 10 -58 -2 -71 -7 -9 -12 -8 -16 5 -5 12 -8 10 -14 -11
-4 -16 -11 -28 -16 -28 -5 0 -2 17 6 38 11 27 11 33 1 20 -13 -18 -42 -26 -31
-9 3 5 1 13 -5 16 -6 4 -10 3 -9 -2 1 -4 0 -19 -1 -33 l-2 -25 -8 25 c-4 14
-9 18 -9 10 -1 -12 -4 -12 -12 3 -5 9 -14 17 -19 17 -5 0 -7 -8 -4 -17 4 -11
2 -14 -3 -8 -4 6 -20 11 -34 11 -22 1 -26 -3 -22 -20 4 -17 1 -16 -14 7 -10
15 -22 27 -27 27 -4 0 -3 -7 4 -15 6 -8 10 -20 7 -27 -4 -8 -6 -7 -6 5 -1 21
-24 22 -40 3 -9 -11 -9 -15 0 -18 7 -2 -2 -10 -19 -17 -18 -8 -32 -16 -32 -20
0 -4 -10 -8 -22 -9 -33 -3 -86 -20 -65 -21 18 -1 25 -21 7 -21 -5 0 -10 -8
-11 -17 0 -10 -3 -13 -5 -6 -3 7 -12 9 -20 6 -8 -3 -14 0 -14 6 0 6 -4 11 -9
11 -5 0 -8 -12 -6 -26 2 -18 -2 -24 -11 -20 -7 3 -16 1 -19 -3 -3 -5 2 -11 10
-15 18 -6 20 -43 3 -48 -8 -3 -8 -9 1 -24 9 -13 11 -14 7 -2 -2 9 2 19 10 22
10 4 12 2 8 -6 -4 -6 0 -16 9 -23 11 -7 13 -16 6 -26 -7 -11 -9 -11 -9 4 0 16
-3 15 -24 -5 -18 -18 -21 -26 -12 -37 9 -12 8 -12 -11 -2 -13 6 -23 18 -23 26
0 8 -5 15 -11 15 -6 0 -9 -8 -7 -17 2 -10 -3 -23 -11 -29 -13 -10 -13 -15 -2
-27 10 -13 9 -17 -9 -27 -11 -6 -18 -15 -15 -21 4 -5 -6 -9 -20 -9 -20 0 -26
-4 -22 -15 4 -8 2 -17 -3 -20 -5 -3 -9 -23 -9 -43 1 -62 -3 -72 -20 -62 -11 6
-22 3 -33 -7 -14 -13 -20 -13 -33 -3 -12 10 -16 9 -21 -4 -3 -9 -4 -25 -1 -36
3 -12 1 -17 -5 -14 -5 3 -16 -2 -23 -12 -11 -15 -15 -16 -15 -4 -1 8 -8 2 -15
-15 -11 -23 -14 -25 -15 -10 0 18 -1 18 -16 -3 -8 -12 -20 -20 -25 -17 -5 4
-9 -1 -9 -9 0 -19 -45 -68 -53 -59 -4 3 -7 -3 -7 -15 0 -12 -4 -22 -9 -22 -5
0 -11 -8 -15 -17 -3 -10 -9 -24 -12 -31 -5 -11 -3 -11 15 -1 13 9 24 10 30 4
13 -13 22 -67 10 -60 -5 4 -9 2 -9 -4 0 -5 4 -13 10 -16 14 -9 -12 -46 -29
-40 -12 5 -12 3 0 -12 12 -15 12 -16 -4 -10 -11 4 -20 1 -23 -7 -7 -18 -44
-28 -44 -12 0 7 -7 13 -15 13 -8 0 -15 -5 -15 -10 0 -6 -8 -2 -19 9 -12 13
-15 21 -7 26 7 5 7 8 -3 8 -10 0 -12 9 -6 37 17 94 16 122 -9 144 -20 17 -22
27 -19 74 3 46 2 54 -11 49 -9 -3 -16 -9 -16 -13 0 -3 -18 -7 -40 -9 -22 -1
-95 -16 -162 -32 -206 -48 -402 -79 -688 -107 -298 -29 -1142 -22 -1370 11
-111 16 -123 18 -324 61 -122 25 -316 86 -343 107 -7 5 -18 6 -24 2 -7 -4 -9
-3 -6 3 4 6 0 14 -9 17 -10 4 -13 2 -7 -7 4 -6 -6 -4 -22 7 -49 30 -113 105
-120 139 -4 18 -14 53 -22 80 l-15 47 -207 0 c-113 1 -232 3 -264 7 l-57 5 2
-183 3 -183 45 -14 c25 -7 54 -15 65 -16 11 -2 47 -13 81 -24 34 -12 97 -29
140 -38 43 -8 113 -27 154 -40 41 -13 85 -24 96 -24 12 0 27 -7 34 -15 7 -8
15 -13 19 -11 4 3 35 6 69 8 l62 3 15 52 c9 29 19 53 24 53 5 0 10 -44 13 -98
7 -141 27 -171 117 -176 19 -1 37 -8 39 -15 3 -8 0 -11 -7 -7 -6 4 -11 3 -11
-3 0 -17 39 -33 57 -23 12 7 27 0 61 -32 101 -92 172 -175 172 -198 0 -10 5
-18 10 -18 6 0 10 -4 10 -10 0 -17 -16 -11 -56 21 -54 43 -71 51 -71 34 0 -8
5 -11 11 -8 6 3 0 -6 -14 -22 l-25 -28 23 12 c13 7 26 10 29 8 4 -4 -27 -18
-47 -22 -16 -3 -59 -32 -80 -55 -14 -15 -49 -40 -78 -55 -28 -15 -52 -31 -52
-36 0 -5 -9 -18 -19 -28 -19 -19 -19 -20 20 -35 51 -21 79 -20 95 2 13 16 14
16 20 -4 4 -17 12 -20 38 -17 23 2 38 -3 51 -17 17 -19 17 -21 1 -39 -16 -18
-15 -20 30 -45 57 -32 84 -34 84 -6 0 25 -2 25 59 -6 29 -14 67 -28 86 -31 19
-3 35 -10 35 -14 0 -5 7 -9 15 -9 8 0 15 -5 15 -11 0 -5 4 -8 9 -4 5 3 12 1
16 -5 4 -6 11 -8 16 -4 15 9 -7 31 -39 39 -25 6 -25 7 -7 17 14 8 20 8 23 0 2
-7 15 -12 28 -12 25 0 64 -18 75 -34 4 -5 16 -6 27 -4 13 4 23 0 26 -8 3 -8
17 -14 31 -14 33 0 65 -17 65 -34 0 -8 12 -18 28 -24 15 -5 42 -23 60 -40 18
-17 43 -34 55 -38 12 -3 38 -15 57 -26 22 -13 36 -16 38 -9 2 6 9 11 15 11 8
0 7 -4 -1 -12 -18 -18 -14 -30 7 -23 11 3 22 1 26 -4 3 -6 24 -15 46 -21 22
-6 37 -15 33 -21 -3 -6 2 -9 12 -7 12 2 18 -2 16 -11 -2 -8 3 -11 13 -8 8 4
15 2 15 -4 0 -6 7 -3 16 5 19 20 28 20 21 2 -6 -14 27 -33 47 -28 5 2 6 -4 3
-12 -4 -9 3 -15 21 -19 15 -2 35 -7 44 -11 13 -6 15 -3 11 15 -4 15 -2 20 5
15 6 -3 9 -15 7 -26 -2 -11 2 -20 8 -20 7 -1 0 -8 -16 -16 -23 -12 -30 -13
-42 -2 -39 35 -45 39 -45 27 0 -6 8 -18 18 -26 16 -14 16 -14 -1 -9 -10 3 -16
2 -13 -2 3 -4 28 -14 55 -22 28 -7 51 -17 51 -22 0 -4 5 -8 10 -8 19 0 10 32
-10 37 -11 3 -20 10 -20 15 0 14 43 5 57 -12 7 -8 13 -11 13 -6 0 5 10 1 22
-10 12 -10 18 -13 13 -5 -8 13 5 12 63 -10 31 -12 28 -22 -6 -15 -23 5 -24 5
-8 -5 13 -8 25 -8 43 0 15 7 22 7 18 1 -3 -5 0 -10 7 -10 7 0 19 -9 26 -20 7
-11 20 -20 30 -20 10 0 27 -7 38 -15 12 -8 24 -12 27 -8 4 3 9 -2 13 -11 3 -9
15 -16 25 -16 10 0 19 -4 19 -9 0 -13 58 -19 69 -8 7 7 15 6 26 -3 8 -7 15 -9
15 -6 0 4 13 -2 29 -13 15 -11 31 -18 35 -14 3 3 6 1 6 -5 0 -7 9 -12 21 -12
14 0 19 -5 16 -15 -4 -8 -2 -17 3 -20 6 -4 10 -2 10 3 0 16 41 22 47 6 6 -17
84 -17 96 0 5 7 12 5 22 -8 18 -23 51 -31 58 -13 4 11 33 13 110 9 19 -1 26
-6 21 -14 -4 -8 -2 -8 7 1 11 10 11 15 2 18 -7 3 -13 11 -13 19 0 12 10 14 41
10 23 -2 45 -9 48 -14 9 -14 50 -21 57 -10 3 5 15 7 26 5 23 -6 76 18 56 26
-22 9 13 8 55 -2 33 -8 36 -7 26 6 -11 12 -8 13 17 7 16 -4 34 -10 39 -14 6
-4 19 -6 30 -4 10 1 25 -2 32 -8 7 -6 13 -7 13 -2 0 4 5 3 12 -4 17 -17 31
-15 24 3 -6 17 15 20 31 4 13 -13 89 -8 86 7 -1 7 8 9 23 6 16 -3 29 1 37 12
9 12 28 17 65 18 28 1 52 6 52 11 0 5 19 7 45 5 27 -3 45 -1 45 4 0 6 12 8 29
5 19 -4 31 -2 34 7 3 7 23 17 44 21 21 4 43 11 50 17 7 5 17 7 23 3 5 -3 10
-3 10 2 0 9 47 9 328 -1 169 -6 192 -5 192 9 0 8 6 15 14 15 8 0 16 5 18 12 3
9 6 9 12 0 4 -7 2 -12 -3 -12 -6 0 -11 -4 -11 -9 0 -11 103 -1 111 12 4 5 12
6 18 3 6 -4 14 0 17 8 4 11 21 16 58 17 28 1 39 4 24 6 -37 6 -36 23 2 23 23
0 28 3 23 17 -5 12 -2 15 10 10 9 -3 19 -2 22 3 4 6 -3 10 -15 10 -18 0 -19 2
-8 13 7 7 28 13 47 12 38 0 55 22 20 27 -12 2 -24 9 -27 16 -3 11 7 12 52 7
37 -5 56 -4 56 3 0 6 9 14 20 17 17 5 20 15 20 61 0 48 -2 55 -17 50 -10 -3
-31 -2 -48 3 -28 9 -27 9 18 10 l47 1 0 169 0 169 -30 4 c-17 3 -33 1 -36 -4
-3 -4 -14 -4 -24 2 -10 5 -28 10 -39 10 -12 0 -21 5 -21 10 0 6 6 10 13 9 6
-1 20 -1 30 0 15 1 16 3 5 14 -14 14 -69 40 -105 52 -13 3 -23 12 -23 19 0 8
-11 14 -25 14 -14 0 -32 5 -41 12 -14 12 -14 14 2 23 12 7 19 5 26 -7 9 -17
28 -22 28 -8 0 9 -21 20 -77 44 -36 14 -44 38 -13 38 11 0 20 4 20 9 0 5 8 11
18 13 12 3 8 7 -15 18 -18 8 -33 19 -33 24 0 9 43 4 74 -9 17 -7 18 -5 12 18
-6 25 -5 25 26 16 18 -5 34 -5 37 0 4 4 13 11 21 14 11 4 10 6 -5 6 -16 1 -17
3 -5 11 12 8 11 13 -9 33 -21 23 -25 24 -49 11 -35 -18 -51 -18 -58 1 -4 10
-10 12 -18 6 -7 -6 -15 -5 -21 3 -13 15 -17 56 -6 56 5 0 17 8 26 17 16 16 16
17 -1 30 -26 19 -15 22 41 11 28 -5 65 -9 84 -9 20 1 38 -5 45 -15 11 -14 13
-14 25 0 13 15 7 56 -9 56 -5 0 -15 6 -22 13 -7 7 -47 26 -88 42 -71 29 -90
46 -56 53 9 2 30 -4 48 -12 17 -9 40 -16 50 -16 11 0 28 -5 40 -11 26 -14 36
-3 15 18 -10 10 -34 17 -60 18 -30 0 -53 8 -74 25 -52 42 -49 82 4 45 12 -8
34 -16 50 -18 16 -2 35 -7 42 -12 9 -5 17 -2 23 9 5 9 13 14 17 11 5 -2 11 8
14 23 4 20 -1 34 -18 52 -13 14 -27 42 -30 63 -4 21 -13 37 -21 37 -8 0 -11
-6 -8 -15 5 -12 2 -13 -17 -7 -12 5 -23 17 -25 26 -1 10 -10 26 -20 37 -16 18
-16 19 6 19 13 0 32 -8 42 -17 18 -16 18 -16 12 1 -6 15 -3 17 14 11 16 -5 22
-2 22 9 0 9 -4 16 -10 16 -17 0 0 26 29 43 16 9 45 17 65 17 41 0 42 2 20 35
-15 23 -15 25 0 31 9 3 27 3 41 0 24 -6 25 -4 25 39 0 38 -3 45 -20 45 -25 0
-70 21 -70 32 0 5 -14 7 -30 4 -17 -2 -28 0 -24 5 3 5 10 7 15 4 5 -4 9 -2 9
3 0 5 17 14 38 20 32 9 34 9 19 -2 -16 -12 -14 -14 23 -18 l40 -4 0 408 c0
382 -1 408 -17 409 -15 0 -15 2 2 9 15 6 10 8 -23 8 -23 -1 -45 2 -50 7 -4 4
3 5 16 2 15 -3 22 -1 19 6 -3 7 -9 11 -14 10 -5 -1 -9 7 -8 17 2 28 15 38 15
12 0 -14 6 -22 18 -22 13 0 14 2 3 9 -8 5 -12 18 -9 28 4 16 1 19 -20 15 -22
-4 -24 -2 -19 17 3 13 1 19 -5 15 -6 -4 -15 0 -20 7 -8 11 -9 10 -4 -3 4 -14
-1 -17 -29 -16 -22 1 -32 5 -28 12 3 6 3 8 -2 4 -4 -4 -14 -3 -22 3 -8 7 -13
8 -13 1z m55 -32 c-3 -5 -12 -10 -18 -10 -7 0 -6 4 3 10 19 12 23 12 15 0z
m-318 -232 c-3 -7 -5 -2 -5 12 0 14 2 19 5 13 2 -7 2 -19 0 -25z m-30 -30 c-3
-7 -5 -2 -5 12 0 14 2 19 5 13 2 -7 2 -19 0 -25z m130 0 c-3 -8 -6 -5 -6 6 -1
11 2 17 5 13 3 -3 4 -12 1 -19z m-110 -90 c-3 -8 -6 -5 -6 6 -1 11 2 17 5 13
3 -3 4 -12 1 -19z m-29 -123 c-3 -3 -9 2 -12 12 -6 14 -5 15 5 6 7 -7 10 -15
7 -18z m227 -25 c4 -6 11 -8 16 -5 5 4 9 1 9 -4 0 -6 -6 -11 -12 -11 -9 0 -8
-3 2 -9 8 -6 17 -8 21 -5 9 5 20 -22 12 -30 -4 -3 -12 -1 -18 4 -9 8 -11 4 -7
-15 2 -14 0 -26 -7 -26 -6 -1 -15 -2 -20 -3 -6 0 -16 -7 -23 -15 -11 -12 -10
-13 5 -8 11 4 17 1 17 -7 0 -8 -16 -16 -37 -19 -41 -7 -55 -1 -33 13 12 8 10
10 -7 10 -18 0 -23 -6 -23 -24 0 -13 -6 -29 -14 -35 -21 -17 -64 -23 -72 -10
-4 7 -3 9 4 5 6 -3 13 -2 17 4 3 5 0 10 -7 10 -9 0 -9 3 2 10 11 7 11 10 2 10
-7 0 -11 4 -8 9 3 4 -1 17 -9 27 -13 16 -14 17 -9 2 5 -14 1 -18 -21 -18 -14
0 -24 -4 -21 -9 3 -5 -6 -12 -19 -15 -15 -4 -23 -11 -19 -17 4 -8 0 -8 -14 0
-16 8 -21 7 -26 -5 -5 -13 -9 -14 -20 -5 -10 9 -15 8 -20 -4 -3 -8 -13 -15
-23 -14 -16 0 -16 1 2 9 11 5 16 9 12 9 -5 1 9 16 32 35 22 18 37 36 34 40 -4
3 -1 6 6 6 7 0 30 14 51 30 21 17 43 30 49 30 6 0 11 6 11 14 0 9 9 14 20 13
18 -1 24 -10 21 -29 0 -5 6 -8 15 -8 14 0 15 2 3 17 -12 15 -12 16 3 10 9 -3
18 -1 20 4 2 6 10 11 18 12 8 2 21 6 28 10 7 5 12 3 12 -7 0 -10 6 -13 15 -10
12 5 13 10 4 20 -9 11 -8 14 4 14 9 0 19 -5 22 -10z m-205 -20 c0 -5 -5 -10
-11 -10 -5 0 -7 5 -4 10 3 6 8 10 11 10 2 0 4 -4 4 -10z m-370 -139 c0 -4 -9
-7 -20 -8 -11 -1 -20 4 -20 12 0 8 7 11 20 8 11 -3 20 -8 20 -12z m35 -20 c-6
-5 -25 10 -25 20 0 5 6 4 14 -3 8 -7 12 -15 11 -17z m481 -46 c-9 -9 -16 -13
-16 -8 0 12 22 34 28 28 2 -2 -3 -11 -12 -20z m40 -4 c0 -12 -5 -17 -15 -13
-11 4 -13 1 -7 -14 6 -15 5 -16 -5 -7 -10 10 -9 17 6 33 22 24 21 24 21 1z
m-113 -41 c3 -11 1 -20 -4 -20 -5 0 -9 9 -9 20 0 11 2 20 4 20 2 0 6 -9 9 -20z
m24 -2 c-3 -8 -6 -5 -6 6 -1 11 2 17 5 13 3 -3 4 -12 1 -19z m-667 -128 c0 -5
-4 -10 -10 -10 -5 0 -10 5 -10 10 0 6 5 10 10 10 6 0 10 -4 10 -10z m145 -91
c11 -17 -1 -21 -15 -4 -8 9 -8 15 -2 15 6 0 14 -5 17 -11z m-85 -43 c0 -2 -7
-7 -16 -10 -8 -3 -12 -2 -9 4 6 10 25 14 25 6z m-10 -30 c0 -2 -8 -10 -17 -17
-16 -13 -17 -12 -4 4 13 16 21 21 21 13z m-3685 -108 c14 -24 14 -28 1 -28
-19 0 -53 47 -61 86 l-7 29 25 -30 c14 -16 33 -42 42 -57z m3583 -7 c-7 -12
-16 -21 -21 -21 -4 0 0 11 10 24 22 29 30 27 11 -3z m7 -43 c3 -3 -13 -4 -35
-4 -22 0 -40 3 -40 7 0 8 67 5 75 -3z m-73 -38 c-2 -7 3 -10 10 -7 8 3 13 -4
13 -18 0 -13 -3 -21 -7 -19 -3 2 -14 -3 -22 -12 -11 -10 -16 -11 -16 -3 0 7
-3 10 -6 7 -3 -3 1 -16 8 -28 12 -19 10 -24 -9 -37 -14 -9 -23 -26 -23 -40 0
-23 2 -24 17 -12 15 12 16 12 8 -6 -4 -11 -8 -28 -9 -37 0 -10 -6 -18 -12 -18
-7 0 -14 -7 -18 -15 -3 -8 -12 -15 -20 -15 -8 0 -16 -5 -18 -11 -2 -6 -17 -13
-33 -14 -15 -2 -32 -11 -37 -20 -5 -8 -14 -13 -19 -10 -5 4 -12 -7 -15 -24 -4
-18 -11 -28 -17 -24 -5 3 -7 1 -4 -5 12 -18 -4 -44 -24 -39 -11 3 -19 -2 -22
-13 -2 -10 -22 -23 -43 -30 -58 -17 -84 -32 -84 -46 0 -7 -8 -19 -18 -26 -32
-23 -37 -42 -6 -22 24 16 27 16 16 2 -9 -11 -10 -18 -2 -23 6 -3 7 -12 3 -18
-4 -7 -8 -15 -8 -19 0 -4 -9 -18 -20 -30 -10 -13 -18 -25 -16 -26 2 -2 -6 -15
-18 -28 -11 -13 -20 -26 -18 -29 1 -2 -8 -12 -21 -20 -12 -9 -20 -20 -17 -25
9 -14 -58 -6 -74 8 -15 14 -22 98 -9 122 4 8 19 41 33 73 15 31 32 57 38 57 7
0 6 4 -3 10 -12 8 -12 10 2 15 9 4 22 20 28 36 7 16 16 27 20 24 8 -5 20 5 53
44 10 12 22 19 28 16 5 -4 17 -1 25 6 9 7 22 14 29 15 28 4 87 59 136 126 28
39 60 73 70 75 10 3 19 12 19 20 0 10 6 13 16 9 8 -3 13 -2 10 2 -3 5 11 26
30 47 19 21 34 32 34 24 0 -9 8 -5 20 11 22 29 18 39 -7 19 -16 -13 -17 -12
-4 4 15 19 38 17 33 -3z m-3285 -30 c40 -18 70 -36 68 -41 -3 -4 7 -7 22 -6
17 1 27 -3 26 -10 -2 -8 4 -10 14 -6 11 4 14 3 9 -6 -5 -8 -3 -12 5 -10 28 3
35 -2 35 -25 0 -14 -4 -22 -8 -20 -4 3 -8 0 -8 -5 0 -17 -73 -13 -100 6 -39
27 -57 46 -62 69 -4 17 -1 20 26 17 22 -3 11 5 -39 27 -38 17 -74 36 -80 42
-12 13 -4 10 92 -32z m3832 -14 c10 -9 20 -13 23 -10 8 7 68 -24 68 -35 0 -5
6 -8 13 -7 6 0 12 -3 12 -9 0 -5 -10 -9 -22 -7 -17 2 -24 -4 -29 -23 -4 -18
-11 -24 -21 -21 -8 3 -20 6 -27 6 -7 0 -20 6 -30 13 -15 11 -16 18 -8 33 14
26 3 43 -44 66 l-39 19 43 -5 c24 -2 51 -11 61 -20z m-181 -28 c8 -8 12 -9 12
-1 0 14 26 11 43 -6 9 -9 9 -14 -1 -20 -20 -12 -57 -2 -70 20 -13 21 -3 26 16
7z m-344 -16 c3 -5 -1 -9 -9 -9 -8 0 -12 4 -9 9 3 4 7 8 9 8 2 0 6 -4 9 -8z
m683 -24 c-3 -8 -6 -5 -6 6 -1 11 2 17 5 13 3 -3 4 -12 1 -19z m-217 6 c0 -8
-19 -13 -24 -6 -3 5 1 9 9 9 8 0 15 -2 15 -3z m350 -44 c0 -5 -7 -10 -15 -10
-8 0 -15 5 -15 10 0 6 7 10 15 10 8 0 15 -4 15 -10z m-830 -25 c0 -8 -2 -15
-4 -15 -2 0 -6 7 -10 15 -3 8 -1 15 4 15 6 0 10 -7 10 -15z m710 -10 c8 -6 23
-15 32 -18 23 -8 12 -37 -13 -37 -12 0 -19 7 -19 19 0 15 -8 21 -32 23 -22 2
-34 9 -36 21 -3 15 1 17 25 11 15 -4 35 -12 43 -19z m-730 -15 c0 -5 -5 -10
-11 -10 -5 0 -7 5 -4 10 3 6 8 10 11 10 2 0 4 -4 4 -10z m47 -21 c-8 -13 -13
-15 -18 -7 -10 15 -4 25 15 25 11 0 12 -4 3 -18z m-34 -24 c-3 -9 -8 -14 -10
-11 -3 3 -2 9 2 15 9 16 15 13 8 -4z m840 8 c-7 -2 -19 -2 -25 0 -7 3 -2 5 12
5 14 0 19 -2 13 -5z m-866 -25 c-3 -8 -6 -5 -6 6 -1 11 2 17 5 13 3 -3 4 -12
1 -19z m-46 -31 c-6 -8 -8 -17 -4 -20 3 -4 0 -7 -7 -7 -7 0 -22 -7 -32 -17
-10 -9 -18 -11 -18 -5 0 6 15 22 33 36 36 29 45 33 28 13z m857 -44 c6 -19
-25 -16 -32 3 -4 11 -1 14 11 12 9 -2 18 -9 21 -15z m-931 -32 c1 -12 -7 -21
-22 -25 -17 -4 -22 -11 -18 -26 3 -11 0 -20 -6 -20 -6 0 -11 5 -11 11 0 6 -7
3 -16 -5 -18 -19 -24 -20 -24 -6 0 11 78 90 89 90 4 0 7 -9 8 -19z m903 -11
c0 -5 -4 -10 -9 -10 -6 0 -13 5 -16 10 -3 6 1 10 9 10 9 0 16 -4 16 -10z m55
-12 c28 -12 33 -28 10 -28 -8 0 -15 5 -15 10 0 7 -6 7 -17 2 -26 -14 -46 -4
-30 13 15 18 20 18 52 3z m145 -153 c-14 -17 -30 -11 -30 10 0 15 33 26 38 13
2 -5 -2 -15 -8 -23z m-135 15 c3 -5 -1 -10 -10 -10 -9 0 -13 5 -10 10 3 6 8
10 10 10 2 0 7 -4 10 -10z m53 -16 c6 3 16 -2 23 -11 13 -15 11 -16 -11 -10
-14 4 -31 7 -37 7 -7 0 -13 7 -13 16 0 13 3 14 15 4 8 -6 18 -9 23 -6z m-1202
-6 c5 -7 3 -8 -6 -3 -9 5 -11 1 -6 -16 3 -13 3 -18 0 -11 -3 6 -10 9 -15 6 -6
-3 -5 -11 2 -20 8 -10 8 -14 0 -14 -6 0 -10 -5 -8 -11 1 -6 -12 -20 -30 -30
-25 -14 -31 -15 -26 -4 3 8 10 15 16 15 6 0 8 3 5 6 -4 3 1 22 9 42 20 49 44
65 59 40z m1054 2 c0 -5 -4 -10 -10 -10 -5 0 -10 5 -10 10 0 6 5 10 10 10 6 0
10 -4 10 -10z m95 -30 c3 -5 1 -10 -4 -10 -6 0 -11 5 -11 10 0 6 2 10 4 10 3
0 8 -4 11 -10z m-25 -77 c0 -5 3 -18 6 -31 5 -18 3 -21 -9 -16 -9 3 -16 9 -15
12 2 23 -4 33 -17 28 -8 -3 -15 -1 -15 4 0 12 50 14 50 3z m52 -75 c-7 -7 -12
-8 -12 -2 0 14 12 26 19 19 2 -3 -1 -11 -7 -17z m168 -128 c0 -5 -5 -10 -11
-10 -5 0 -7 5 -4 10 3 6 8 10 11 10 2 0 4 -4 4 -10z m-4023 -66 c-3 -3 -12 -4
-19 -1 -8 3 -5 6 6 6 11 1 17 -2 13 -5z m1020 -360 c-3 -3 -12 -4 -19 -1 -8 3
-5 6 6 6 11 1 17 -2 13 -5z m108 -102 c-6 -7 -34 11 -29 19 3 5 11 3 19 -4 7
-6 12 -13 10 -15z m780 -183 c11 -16 1 -19 -13 -3 -7 8 -8 14 -3 14 5 0 13 -5
16 -11z m605 -79 c0 -5 -4 -10 -10 -10 -5 0 -10 5 -10 10 0 6 5 10 10 10 6 0
10 -4 10 -10z m-173 -20 c-1 -11 -8 -20 -17 -20 -24 0 -31 10 -17 26 18 20 36
17 34 -6z"/>
<path d="M4888 2813 c7 -3 16 -2 19 1 4 3 -2 6 -13 5 -11 0 -14 -3 -6 -6z"/>
<path d="M4764 2734 c-18 -14 -18 -15 4 -4 12 6 22 13 22 15 0 8 -5 6 -26 -11z"/>
<path d="M4900 2730 c0 -5 5 -10 10 -10 6 0 10 5 10 10 0 6 -4 10 -10 10 -5 0
-10 -4 -10 -10z"/>
<path d="M4140 2100 c0 -5 5 -10 10 -10 6 0 10 5 10 10 0 6 -4 10 -10 10 -5 0
-10 -4 -10 -10z"/>
<path d="M4545 2050 c-3 -5 -1 -10 4 -10 6 0 11 5 11 10 0 6 -2 10 -4 10 -3 0
-8 -4 -11 -10z"/>
<path d="M5090 3396 c0 -2 7 -9 15 -16 13 -11 14 -10 9 4 -5 14 -24 23 -24 12z"/>
<path d="M261 3381 c-8 -6 -9 -11 -3 -15 6 -3 14 -1 17 5 9 14 2 20 -14 10z"/>
<path d="M853 3343 c-7 -17 4 -43 17 -43 5 0 10 11 10 24 0 13 6 26 13 29 6 3
1 4 -12 4 -13 -1 -26 -7 -28 -14z"/>
<path d="M425 3179 c-27 -5 -124 -18 -215 -29 -226 -28 -210 -23 -210 -71 l0
-41 38 6 c20 3 120 15 222 26 242 27 230 24 230 70 0 22 -3 41 -7 43 -5 2 -30
0 -58 -4z"/>
<path d="M897 3143 c-2 -5 -1 -19 4 -33 4 -14 7 -19 8 -11 1 9 8 6 23 -10 16
-18 19 -19 15 -6 -4 10 -7 28 -7 40 0 18 -2 19 -10 7 -8 -13 -10 -12 -10 3 0
17 -15 24 -23 10z"/>
<path d="M4950 3086 c0 -2 7 -7 16 -10 8 -3 12 -2 9 4 -6 10 -25 14 -25 6z"/>
<path d="M4990 3076 c0 -8 4 -17 9 -21 6 -3 9 4 8 15 -1 23 -17 28 -17 6z"/>
<path d="M899 3013 c-1 -10 -1 -21 0 -25 0 -5 -4 -8 -10 -8 -6 0 -9 -9 -6 -20
7 -27 -1 -25 -25 5 -11 14 -24 25 -30 25 -6 0 -6 -6 2 -15 7 -8 9 -15 4 -15
-5 0 3 -11 18 -24 15 -12 24 -27 20 -31 -4 -5 -1 -5 6 -1 6 4 12 14 12 22 0 8
3 13 8 11 4 -3 8 17 8 44 2 45 -5 71 -7 32z"/>
<path d="M3762 2910 c0 -14 2 -19 5 -12 2 6 2 18 0 25 -3 6 -5 1 -5 -13z"/>
<path d="M4766 2917 c3 -10 9 -15 12 -12 3 3 0 11 -7 18 -10 9 -11 8 -5 -6z"/>
<path d="M875 2881 c3 -5 1 -31 -5 -57 -8 -33 -8 -50 0 -58 15 -15 41 24 29
46 -5 9 -9 30 -9 47 0 17 -5 31 -11 31 -5 0 -8 -4 -4 -9z"/>
<path d="M4620 2866 c0 -2 7 -7 16 -10 8 -3 12 -2 9 4 -6 10 -25 14 -25 6z"/>
<path d="M818 2487 c-6 -12 -13 -31 -14 -42 -2 -17 3 -21 24 -20 15 1 36 -6
46 -14 15 -12 17 -13 11 -2 -6 11 -4 13 8 8 8 -3 21 1 28 10 11 13 9 14 -18
10 -22 -4 -33 -1 -37 10 -5 12 -1 14 17 11 20 -4 23 -1 19 15 -3 14 -1 18 6
13 7 -4 12 -3 12 2 0 5 -9 12 -20 15 -11 3 -20 1 -20 -5 0 -5 -6 -6 -12 -1
-24 14 -38 11 -50 -10z"/>
<path d="M936 2497 c3 -10 9 -15 12 -12 3 3 0 11 -7 18 -10 9 -11 8 -5 -6z"/>
<path d="M576 2441 c-4 -7 -5 -15 -2 -18 9 -9 19 4 14 18 -4 11 -6 11 -12 0z"/>
<path d="M4160 2326 c0 -9 -4 -14 -10 -11 -5 3 -10 -1 -10 -9 0 -9 4 -16 9
-16 12 0 25 39 17 47 -3 4 -6 -1 -6 -11z"/>
<path d="M5272 2223 c-10 -4 -10 -8 -1 -19 13 -16 59 -19 59 -4 0 8 -33 31
-42 29 -2 0 -9 -3 -16 -6z"/>
<path d="M5215 2170 c3 -5 13 -10 21 -10 8 0 14 5 14 10 0 6 -9 10 -21 10 -11
0 -17 -4 -14 -10z"/>
<path d="M1523 2043 c9 -2 23 -2 30 0 6 3 -1 5 -18 5 -16 0 -22 -2 -12 -5z"/>
<path d="M1603 2033 c9 -2 25 -2 35 0 9 3 1 5 -18 5 -19 0 -27 -2 -17 -5z"/>
<path d="M771 1904 c0 -11 3 -14 6 -6 3 7 2 16 -1 19 -3 4 -6 -2 -5 -13z"/>
<path d="M5215 1860 c3 -5 10 -10 16 -10 5 0 9 5 9 10 0 6 -7 10 -16 10 -8 0
-12 -4 -9 -10z"/>
<path d="M5298 1823 c6 -2 18 -2 25 0 6 3 1 5 -13 5 -14 0 -19 -2 -12 -5z"/>
<path d="M5228 1713 c7 -3 16 -2 19 1 4 3 -2 6 -13 5 -11 0 -14 -3 -6 -6z"/>
<path d="M5040 1670 c0 -5 6 -10 13 -10 8 0 7 -4 -3 -11 -13 -9 -13 -10 0 -6
21 5 26 37 6 37 -9 0 -16 -4 -16 -10z"/>
<path d="M1110 1579 c0 -5 5 -7 10 -4 6 3 10 8 10 11 0 2 -4 4 -10 4 -5 0 -10
-5 -10 -11z"/>
<path d="M5090 1520 c0 -6 7 -10 15 -10 8 0 15 2 15 4 0 2 -7 6 -15 10 -8 3
-15 1 -15 -4z"/>
<path d="M830 1470 c0 -5 5 -10 10 -10 6 0 10 5 10 10 0 6 -4 10 -10 10 -5 0
-10 -4 -10 -10z"/>
<path d="M630 1445 c-7 -9 -8 -15 -2 -15 5 0 12 7 16 15 3 8 4 15 2 15 -2 0
-9 -7 -16 -15z"/>
<path d="M5083 1434 c16 -9 32 -13 35 -9 9 9 -19 25 -43 24 -16 0 -15 -2 8
-15z"/>
<path d="M685 1430 c-10 -16 3 -29 45 -41 21 -7 41 -19 43 -28 4 -13 5 -13 6
2 1 22 -21 47 -42 47 -8 0 -17 7 -21 15 -6 17 -22 20 -31 5z"/>
<path d="M860 1390 c0 -5 5 -10 10 -10 6 0 10 5 10 10 0 6 -4 10 -10 10 -5 0
-10 -4 -10 -10z"/>
<path d="M1250 1119 c0 -5 9 -9 19 -9 11 0 22 4 25 9 3 5 -6 9 -19 9 -14 0
-25 -4 -25 -9z"/>
<path d="M1505 1060 c3 -5 8 -10 11 -10 2 0 4 5 4 10 0 6 -5 10 -11 10 -5 0
-7 -4 -4 -10z"/>
<path d="M1537 1054 c-10 -11 13 -34 34 -34 11 0 19 -4 19 -9 0 -5 17 -15 38
-22 20 -6 41 -18 45 -25 4 -8 15 -14 23 -14 8 0 12 -5 9 -10 -4 -6 -3 -10 2
-9 4 1 22 -3 38 -10 39 -16 129 -51 133 -51 1 0 2 5 2 10 0 10 -42 32 -65 35
-5 1 -26 11 -45 23 -19 12 -55 30 -80 39 -25 9 -52 25 -61 35 -9 10 -19 15
-23 11 -3 -3 -6 -1 -6 5 0 7 -8 12 -18 12 -10 0 -23 5 -28 10 -6 6 -13 7 -17
4z"/>
<path d="M1577 953 c-9 -8 22 -43 38 -43 7 0 24 -9 38 -20 31 -24 66 -28 47
-5 -7 8 -17 12 -23 8 -6 -4 -7 -1 -3 6 10 16 -22 40 -52 41 -13 0 -20 4 -17
10 7 11 -18 14 -28 3z"/>
<path d="M1725 861 c-3 -5 4 -12 15 -16 11 -4 18 -11 15 -16 -4 -5 1 -9 9 -9
24 0 31 22 11 37 -22 15 -41 17 -50 4z"/>
<path d="M1893 857 c4 -10 7 -20 7 -23 0 -2 7 -1 15 2 8 4 15 11 15 17 0 6 -3
7 -7 4 -3 -4 -13 -1 -21 6 -13 10 -15 9 -9 -6z"/>
<path d="M1936 831 c-3 -5 5 -11 19 -13 17 -4 25 -1 25 8 0 15 -36 19 -44 5z"/>
<path d="M1795 810 c3 -5 17 -10 31 -10 14 0 24 -6 24 -15 0 -8 6 -12 14 -9 7
3 16 -2 19 -10 4 -9 14 -16 24 -16 15 0 16 -2 3 -11 -11 -8 -9 -9 10 -3 53 14
52 21 -9 43 -34 12 -61 26 -61 32 0 5 -14 9 -31 9 -17 0 -28 -4 -24 -10z"/>
<path d="M2000 805 c7 -8 21 -15 31 -15 10 0 23 -8 28 -17 6 -10 11 -15 11
-11 0 4 18 -2 40 -13 21 -11 45 -17 51 -13 7 4 10 3 7 -2 -3 -5 0 -14 7 -21
10 -10 14 -9 19 2 7 19 -31 45 -67 45 -15 0 -30 7 -33 15 -4 8 -14 15 -23 15
-9 0 -29 7 -45 15 -36 19 -42 19 -26 0z"/>
<path d="M1950 730 c-13 -8 18 -21 63 -25 25 -2 26 -1 10 10 -25 17 -59 24
-73 15z"/>
<path d="M1860 695 c7 -9 15 -13 17 -11 7 7 -7 26 -19 26 -6 0 -6 -6 2 -15z"/>
<path d="M2130 666 c0 -8 5 -16 11 -18 5 -2 11 -11 13 -20 1 -10 6 -21 11 -25
4 -5 5 -2 0 6 -6 11 -4 13 7 8 25 -9 10 29 -18 48 -20 13 -24 13 -24 1z"/>
<path d="M1948 643 c7 -3 16 -2 19 1 4 3 -2 6 -13 5 -11 0 -14 -3 -6 -6z"/>
<path d="M2356 636 c5 -14 92 -52 100 -44 4 4 -91 58 -102 58 -2 0 -1 -6 2
-14z"/>
<path d="M1865 620 c3 -5 8 -10 11 -10 2 0 4 5 4 10 0 6 -5 10 -11 10 -5 0 -7
-4 -4 -10z"/>
<path d="M2220 612 c0 -15 11 -21 27 -15 12 5 12 7 1 14 -17 11 -28 11 -28 1z"/>
<path d="M2478 588 c-6 -16 20 -37 45 -38 22 0 22 -16 0 -29 -15 -8 -14 -9 7
-9 54 -1 103 -11 118 -25 18 -15 53 -31 64 -29 3 1 12 -5 18 -13 14 -17 30
-20 30 -5 0 6 -6 10 -13 10 -7 0 -20 9 -29 20 -10 11 -30 23 -45 26 -15 4 -34
13 -41 21 -7 7 -22 13 -33 13 -11 0 -17 5 -14 10 3 6 -3 10 -15 10 -12 0 -19
4 -15 9 3 5 0 13 -6 17 -8 4 -9 3 -5 -4 5 -8 -2 -12 -20 -12 -26 0 -26 1 -9
13 14 11 15 16 5 22 -9 5 -11 4 -6 -3 9 -15 -6 -16 -21 -1 -8 8 -12 7 -15 -3z"/>
<path d="M2266 573 c9 -7 21 -10 25 -7 17 10 9 19 -16 19 -22 0 -23 -1 -9 -12z"/>
<path d="M4430 550 c0 -5 5 -10 10 -10 6 0 10 5 10 10 0 6 -4 10 -10 10 -5 0
-10 -4 -10 -10z"/>
</g>
</svg>
